<svg xmlns="http://www.w3.org/2000/svg" id="162f5825-25d3-4c64-b092-1a6b65dec966" data-name="Layer 1" viewBox="58.749820709228516 59.900001525878906 1463.0400390625 192.32049560546875" preserveAspectRatio="xMidYMid meet">
    <defs>
        <style>
            .d1443386-a25c-4ced-843f-ee84e0b24e17 {
            fill: #989798;
            }

            .\34 329dae1-a54f-4ae4-a1cc-cb2c2c0ddc0d {
            fill: #fff;
            }
        </style>
    </defs>

    <g>
        <path class="d1443386-a25c-4ced-843f-ee84e0b24e17" d="M154.84,206.85a5.92,5.92,0,0,1-1.13.17,6,6,0,0,1-6.4-5.68,74.81,74.81,0,0,1,.35-12.13c.47-6.37,5.29-13.22,11.85-13.38a24.12,24.12,0,0,0,3.07-.23,17.48,17.48,0,0,0,4.91-32.93,6.06,6.06,0,0,1,5.36-10.86,29.58,29.58,0,0,1-8.33,55.74,34,34,0,0,1-3.91.36,4.73,4.73,0,0,0-.88,2.21c0,.13,0,.26,0,.39a64.56,64.56,0,0,0-.29,10.11,6.07,6.07,0,0,1-4.56,6.23"></path>
        <path class="d1443386-a25c-4ced-843f-ee84e0b24e17" d="M169.44,153.43A10.51,10.51,0,1,1,155.6,148a10.51,10.51,0,0,1,13.84,5.44"></path>
        <path class="d1443386-a25c-4ced-843f-ee84e0b24e17" d="M173.16,211A54.85,54.85,0,0,1,110.58,182a6.05,6.05,0,1,1,10.85-5.36A42.87,42.87,0,0,0,199.9,173a52.4,52.4,0,0,0,2-7c2.5-10.69,16.57-14.74,25.35-13.45a6.05,6.05,0,0,1-1.75,12c-5.3-.78-11.32,2.11-11.81,4.22a65.25,65.25,0,0,1-2.51,8.57A55.05,55.05,0,0,1,173.16,211"></path>
        <path class="d1443386-a25c-4ced-843f-ee84e0b24e17" d="M102.81,162.08a27.9,27.9,0,0,1-10.49.66,6.06,6.06,0,0,1,1.76-12c5.29.78,11.31-2.11,11.8-4.22a65.25,65.25,0,0,1,2.51-8.57,55.31,55.31,0,0,1,59.67-34.71,6,6,0,1,1-1.83,12,43.14,43.14,0,0,0-46.53,27.08,52.84,52.84,0,0,0-2,7c-1.14,4.91-5,9-10.78,11.44a29.14,29.14,0,0,1-4.08,1.36"></path>
        <path class="d1443386-a25c-4ced-843f-ee84e0b24e17" d="M179.49,235.61A80.83,80.83,0,0,1,119,227a6.05,6.05,0,0,1-2.16-8.29l.07-.12a6.06,6.06,0,0,1,8.29-2.15,68.21,68.21,0,0,0,97.6-85c-.7-1.68-1.48-3.35-2.3-5a6.23,6.23,0,0,1-.45-1.15c-1.08-2-2.22-3.86-3.34-5.66-7.53-12.11,1.92-30,12-37.52A6.05,6.05,0,1,1,236,91.84c-6.65,5-12.18,16.22-8.95,21.42a94.84,94.84,0,0,1,6.32,11.53,80.64,80.64,0,0,1-40.1,106l-1.15.51-.55.24a80.34,80.34,0,0,1-12,4.07"></path>
        <path class="d1443386-a25c-4ced-843f-ee84e0b24e17" d="M88.75,234.13a6,6,0,0,1-5.09-10.72c6.64-4.95,12.17-16.22,8.94-21.42a96.22,96.22,0,0,1-6.32-11.53,80.64,80.64,0,0,1,40.1-106,79.81,79.81,0,0,1,62.78-1.65,6.05,6.05,0,0,1-4.43,11.27,67.78,67.78,0,0,0-53.33,1.4,68.5,68.5,0,0,0-34.06,90,84,84,0,0,0,5.54,10.08c7.53,12.11-1.91,30-12,37.52a6.08,6.08,0,0,1-2.14,1"></path>
        <path class="d1443386-a25c-4ced-843f-ee84e0b24e17" d="M259.63,67.51a9.88,9.88,0,1,1-13-5.11,9.89,9.89,0,0,1,13,5.11"></path>
        <path class="d1443386-a25c-4ced-843f-ee84e0b24e17" d="M77.69,238.4a9.88,9.88,0,1,1-13-5.12,9.88,9.88,0,0,1,13,5.12"></path>
        <g>
            <path class="d1443386-a25c-4ced-843f-ee84e0b24e17" d="M296.11,142a24.61,24.61,0,0,1,1.49-8.5,19.33,19.33,0,0,1,4.64-7.17,22.25,22.25,0,0,1,8.09-4.89,34.42,34.42,0,0,1,11.75-1.81,70.16,70.16,0,0,1,12.73,1.19,37.47,37.47,0,0,1,10.88,3.55c1.17.56,1.79,1.07,1.85,1.55a7.53,7.53,0,0,1-.72,2.89L344,137.33c-.48,1.31-1,2.06-1.39,2.27a3.85,3.85,0,0,1-2.42-.21,71.36,71.36,0,0,0-9.13-1.9,61.28,61.28,0,0,0-8.71-.67c-2.4,0-4,.34-4.79,1a3.17,3.17,0,0,0-1.18,2.47,3.64,3.64,0,0,0,.25,1.29,4.32,4.32,0,0,0,1,1.44,10.13,10.13,0,0,0,2.27,1.6A29.36,29.36,0,0,0,324,146.4q6.19,2.37,11.14,4.69a37.2,37.2,0,0,1,8.34,5.21,20.63,20.63,0,0,1,5.26,6.65,19.65,19.65,0,0,1,1.86,8.81q0,11.13-7.32,16.7T322.6,194a79.78,79.78,0,0,1-14.69-1.44,40.11,40.11,0,0,1-13.86-5.26,2.25,2.25,0,0,1-1.19-1.39,4.5,4.5,0,0,1,.47-2.32l4-9.79c.48-1.17,1-1.82,1.44-2a4,4,0,0,1,2.27.41,41,41,0,0,0,4,1.34c1.61.49,3.35.93,5.2,1.35s3.8.75,5.82,1a45,45,0,0,0,5.93.41,13.2,13.2,0,0,0,3.92-.47,7,7,0,0,0,2.27-1.13,3.14,3.14,0,0,0,1.08-1.49,5.06,5.06,0,0,0,.26-1.45,6.67,6.67,0,0,0-.21-1.65,3.43,3.43,0,0,0-1-1.59A10,10,0,0,0,325.9,167a37.38,37.38,0,0,0-4.43-1.91q-5.37-2-10-4.07a39.22,39.22,0,0,1-8-4.8,20.67,20.67,0,0,1-5.36-6.13A16.08,16.08,0,0,1,296.11,142Z"></path>
            <path class="d1443386-a25c-4ced-843f-ee84e0b24e17" d="M359.6,142a24.38,24.38,0,0,1,1.5-8.5,19.08,19.08,0,0,1,4.64-7.17,22.08,22.08,0,0,1,8.09-4.89,34.38,34.38,0,0,1,11.75-1.81,70.33,70.33,0,0,1,12.73,1.19,37.4,37.4,0,0,1,10.87,3.55c1.17.56,1.79,1.07,1.86,1.55a7.53,7.53,0,0,1-.72,2.89l-2.79,8.55c-.48,1.31-.94,2.06-1.39,2.27a3.85,3.85,0,0,1-2.42-.21,70.85,70.85,0,0,0-9.12-1.9,61.39,61.39,0,0,0-8.71-.67c-2.41,0-4,.34-4.79,1a3.15,3.15,0,0,0-1.19,2.47,3.66,3.66,0,0,0,.26,1.29,4.18,4.18,0,0,0,1,1.44,9.9,9.9,0,0,0,2.27,1.6,28.84,28.84,0,0,0,4.07,1.75q6.18,2.37,11.13,4.69A37.28,37.28,0,0,1,407,156.3a20.63,20.63,0,0,1,5.26,6.65,19.78,19.78,0,0,1,1.85,8.81q0,11.13-7.32,16.7T386.1,194a79.7,79.7,0,0,1-14.69-1.44,40.24,40.24,0,0,1-13.87-5.26,2.23,2.23,0,0,1-1.18-1.39,4.47,4.47,0,0,1,.46-2.32l4-9.79c.48-1.17,1-1.82,1.44-2a4,4,0,0,1,2.27.41c1,.42,2.36.87,4,1.34s3.35.93,5.21,1.35,3.79.75,5.82,1a44.91,44.91,0,0,0,5.93.41,13.12,13.12,0,0,0,3.91-.47,6.86,6.86,0,0,0,2.27-1.13,3.14,3.14,0,0,0,1.08-1.49,5.06,5.06,0,0,0,.26-1.45,7.16,7.16,0,0,0-.2-1.65,3.51,3.51,0,0,0-1-1.59,10.29,10.29,0,0,0-2.43-1.65,36.66,36.66,0,0,0-4.43-1.91q-5.35-2-10-4.07a39.22,39.22,0,0,1-8-4.8,21,21,0,0,1-5.36-6.13A16.18,16.18,0,0,1,359.6,142Z"></path>
            <path class="d1443386-a25c-4ced-843f-ee84e0b24e17" d="M485.82,192.43c-.24.31-.94.46-2.11.46H469.07q-2.37,0-2.37-2.16V163.51H443.82v27.22a2.91,2.91,0,0,1-.36,1.7c-.24.31-.95.46-2.12.46H426.71q-2.37,0-2.37-2.16V122.9q0-2.16,2.37-2.16h14.63c1.17,0,1.88.15,2.12.46a2.91,2.91,0,0,1,.36,1.7v24.33H466.7V122.9q0-2.16,2.37-2.16h14.64c1.17,0,1.87.15,2.11.46a2.91,2.91,0,0,1,.36,1.7v67.83A2.91,2.91,0,0,1,485.82,192.43Z"></path>
            <path class="d1443386-a25c-4ced-843f-ee84e0b24e17" d="M564.83,156.71A59.86,59.86,0,0,1,563,172.27,30.77,30.77,0,0,1,557.15,184a25.42,25.42,0,0,1-10.25,7.42,39.81,39.81,0,0,1-15,2.57,38,38,0,0,1-14.49-2.52,24.92,24.92,0,0,1-10.05-7.32,31.36,31.36,0,0,1-5.82-11.7,58.51,58.51,0,0,1-1.91-15.56,52.28,52.28,0,0,1,2.12-15.36,33.32,33.32,0,0,1,6.18-11.8A26.74,26.74,0,0,1,518,122.23a35.39,35.39,0,0,1,14.12-2.63,36.65,36.65,0,0,1,14.49,2.63,27.07,27.07,0,0,1,10.2,7.47,31.11,31.11,0,0,1,6,11.7A55.55,55.55,0,0,1,564.83,156.71Zm-20.51.1a60.13,60.13,0,0,0-.67-7.68,21.78,21.78,0,0,0-1.91-6.34,10.92,10.92,0,0,0-3.71-4.27,10.43,10.43,0,0,0-6-1.6,9.07,9.07,0,0,0-5.26,1.55,11.93,11.93,0,0,0-3.71,4.17,21.89,21.89,0,0,0-2.16,6.13,36.35,36.35,0,0,0-.72,7.32,52.9,52.9,0,0,0,.62,8.56,19.75,19.75,0,0,0,2.06,6.44,10.62,10.62,0,0,0,3.81,4.07,11.14,11.14,0,0,0,5.88,1.44,9.65,9.65,0,0,0,5.67-1.59,11.23,11.23,0,0,0,3.6-4.33,22,22,0,0,0,1.91-6.34A48.21,48.21,0,0,0,544.32,156.81Z"></path>
            <path class="d1443386-a25c-4ced-843f-ee84e0b24e17" d="M611.42,176.6a28.71,28.71,0,0,0,9-1.23c2.47-.83,4.81-1.65,7-2.48a3.78,3.78,0,0,1,2.21-.41c.45.14.91.79,1.39,2l4.44,9.28a4.9,4.9,0,0,1,.62,2.37,2.07,2.07,0,0,1-1.24,1.44,41.87,41.87,0,0,1-12.37,5.1A58.37,58.37,0,0,1,609.57,194a38,38,0,0,1-15.52-2.83,27.22,27.22,0,0,1-10.31-7.78A31.45,31.45,0,0,1,578,171.66a58,58,0,0,1-1.8-14.85,44.09,44.09,0,0,1,2.47-15.15,34.72,34.72,0,0,1,7-11.7,30.74,30.74,0,0,1,10.77-7.57,35.08,35.08,0,0,1,13.92-2.68,60.77,60.77,0,0,1,11.18,1,31.38,31.38,0,0,1,9.74,3.56c.55.35,1,.62,1.29.83a1,1,0,0,1,.51.77,3.35,3.35,0,0,1-.1,1.13,11.79,11.79,0,0,1-.56,1.7l-3.61,8.46a4.47,4.47,0,0,1-1.39,2.31,3.61,3.61,0,0,1-2.53-.25c-1.38-.42-2.61-.78-3.71-1.09s-2.18-.56-3.25-.77a26.77,26.77,0,0,0-3.19-.41c-1.07-.07-2.22-.1-3.46-.1a12.65,12.65,0,0,0-10.41,5.1q-4,5.1-4,14.89t3.35,14.74Q603.49,176.6,611.42,176.6Z"></path>
        </g>
        <g>
            <path class="d1443386-a25c-4ced-843f-ee84e0b24e17" d="M297.84,216.28a2.72,2.72,0,0,1-.28,1.28,2.45,2.45,0,0,1-.77.92,3.46,3.46,0,0,1-1.16.55,5.21,5.21,0,0,1-1.46.19,11,11,0,0,1-1.92-.18,6.11,6.11,0,0,1-1.81-.59.29.29,0,0,1-.14-.13c0-.06,0-.13,0-.22l.31-.67c.07-.16.19-.21.38-.14a6.71,6.71,0,0,0,1.62.54,8,8,0,0,0,1.53.17,2.91,2.91,0,0,0,1.64-.42,1.38,1.38,0,0,0,.63-1.24,1.43,1.43,0,0,0-.67-1.24,9.16,9.16,0,0,0-1.9-.91,12.24,12.24,0,0,1-1.43-.59,4.18,4.18,0,0,1-1-.64,2,2,0,0,1-.54-.76,2.7,2.7,0,0,1-.17-1,2.54,2.54,0,0,1,.9-2,3.78,3.78,0,0,1,2.57-.79,9.85,9.85,0,0,1,1.56.13,7.09,7.09,0,0,1,1.5.44.24.24,0,0,1,.13.34l-.31.77a.2.2,0,0,1-.12.11l-.16,0a7.65,7.65,0,0,0-1.36-.42,7.53,7.53,0,0,0-1.28-.11,2.31,2.31,0,0,0-1.45.41,1.29,1.29,0,0,0-.54,1.06,1.33,1.33,0,0,0,.14.65,1.46,1.46,0,0,0,.43.48,4.31,4.31,0,0,0,.76.42q.48.21,1.14.45a9.71,9.71,0,0,1,1.22.51,4.51,4.51,0,0,1,1,.64,2.81,2.81,0,0,1,.69.85A2.41,2.41,0,0,1,297.84,216.28Z"></path>
            <path class="d1443386-a25c-4ced-843f-ee84e0b24e17" d="M308.51,213.78a6.14,6.14,0,0,1-1.18,4,4.21,4.21,0,0,1-3.39,1.4,4.11,4.11,0,0,1-3.33-1.37,6.07,6.07,0,0,1-1.15-4,7.51,7.51,0,0,1,.33-2.32,4.81,4.81,0,0,1,.94-1.7,4.06,4.06,0,0,1,1.44-1,4.53,4.53,0,0,1,1.83-.36,4.06,4.06,0,0,1,3.35,1.41A6,6,0,0,1,308.51,213.78Zm-1.44.07a9.1,9.1,0,0,0-.14-1.58,4.25,4.25,0,0,0-.47-1.34,2.54,2.54,0,0,0-.94-.93,3,3,0,0,0-1.51-.34,2.87,2.87,0,0,0-1.42.33,3,3,0,0,0-1,.9,4.13,4.13,0,0,0-.55,1.32,6.71,6.71,0,0,0-.18,1.58,8.93,8.93,0,0,0,.16,1.7,4.12,4.12,0,0,0,.52,1.34,2.44,2.44,0,0,0,.94.89A3.09,3.09,0,0,0,304,218a2.86,2.86,0,0,0,1.49-.37,2.76,2.76,0,0,0,1-1,4.28,4.28,0,0,0,.5-1.34A7.76,7.76,0,0,0,307.07,213.85Z"></path>
            <path class="d1443386-a25c-4ced-843f-ee84e0b24e17" d="M315,218a5.11,5.11,0,0,0,1.35-.18,5,5,0,0,0,1.12-.43c.1-.06.18-.07.23,0a.38.38,0,0,1,.12.13l.32.69a.22.22,0,0,1,.06.2.5.5,0,0,1-.14.16,5.51,5.51,0,0,1-1.6.55,8.54,8.54,0,0,1-1.65.16,4.18,4.18,0,0,1-3.35-1.32,6,6,0,0,1-1.13-4,7.36,7.36,0,0,1,.33-2.29,4.93,4.93,0,0,1,.92-1.73,4,4,0,0,1,1.47-1.09,4.65,4.65,0,0,1,1.93-.39,7.07,7.07,0,0,1,1.48.16,5.44,5.44,0,0,1,1.4.53c.16.1.19.21.1.36l-.35.67a.4.4,0,0,1-.11.14.31.31,0,0,1-.23,0,8.12,8.12,0,0,0-1.05-.38,4.83,4.83,0,0,0-1.24-.16,3,3,0,0,0-1.47.35,2.87,2.87,0,0,0-1,.94,4.1,4.1,0,0,0-.57,1.35,6.77,6.77,0,0,0-.18,1.58,7.26,7.26,0,0,0,.16,1.59,3.36,3.36,0,0,0,.53,1.28,2.54,2.54,0,0,0,1,.86A3.38,3.38,0,0,0,315,218Z"></path>
            <path class="d1443386-a25c-4ced-843f-ee84e0b24e17" d="M322.15,205.81a.9.9,0,0,1-.28.69,1,1,0,0,1-.7.28.94.94,0,0,1-.69-.28.89.89,0,0,1-.3-.69,1,1,0,0,1,.3-.71.91.91,0,0,1,.69-.29.93.93,0,0,1,.7.29A1,1,0,0,1,322.15,205.81Zm-.27,12.94a.25.25,0,0,1-.06.2.33.33,0,0,1-.22.05h-.89a.28.28,0,0,1-.2-.05c-.05,0-.07-.1-.07-.2v-9.84c0-.11,0-.18.07-.21a.34.34,0,0,1,.2,0h.89a.4.4,0,0,1,.22,0s.06.1.06.21Z"></path>
            <path class="d1443386-a25c-4ced-843f-ee84e0b24e17" d="M332.76,218.1a.46.46,0,0,1-.28.47,7.32,7.32,0,0,1-1.89.51,14.5,14.5,0,0,1-1.93.14,6.35,6.35,0,0,1-2.07-.28,3.33,3.33,0,0,1-1.28-.72,2.34,2.34,0,0,1-.66-1,3.78,3.78,0,0,1-.19-1.21,3.72,3.72,0,0,1,.25-1.38,3.23,3.23,0,0,1,.78-1.12,3.86,3.86,0,0,1,1.31-.74,5.85,5.85,0,0,1,1.88-.26h2.62V212a3.71,3.71,0,0,0-.1-.9,1.47,1.47,0,0,0-.37-.71,1.82,1.82,0,0,0-.77-.46,4.13,4.13,0,0,0-1.28-.17,10.13,10.13,0,0,0-2.76.44.7.7,0,0,1-.22,0q-.07,0-.12-.15l-.2-.72a.23.23,0,0,1,.16-.3c.24-.09.49-.17.77-.25l.86-.19a8.51,8.51,0,0,1,.9-.11l.84,0a4.07,4.07,0,0,1,2.83.85,3.23,3.23,0,0,1,.92,2.49Zm-1.48-4.34h-2.54a7.17,7.17,0,0,0-.85.06,2.83,2.83,0,0,0-.94.28,2.2,2.2,0,0,0-.75.68,2.16,2.16,0,0,0-.3,1.22,2,2,0,0,0,.22,1,1.87,1.87,0,0,0,.62.63,2.39,2.39,0,0,0,.87.33,5.72,5.72,0,0,0,1,.09l.48,0,.68-.06a6.71,6.71,0,0,0,.76-.13,6.17,6.17,0,0,0,.72-.21Z"></path>
            <path class="d1443386-a25c-4ced-843f-ee84e0b24e17" d="M338.72,218.87s-.07.07-.16.11a2.85,2.85,0,0,1-.71.18,5.67,5.67,0,0,1-.67,0,1.55,1.55,0,0,1-1.3-.46,2.29,2.29,0,0,1-.36-1.41V204.84a.25.25,0,0,1,.06-.2.3.3,0,0,1,.21,0h.9a.3.3,0,0,1,.21,0,.25.25,0,0,1,.06.2v12a1.54,1.54,0,0,0,.15.8.65.65,0,0,0,.58.23l.37,0,.34,0a.18.18,0,0,1,.24.16l.09.65A.3.3,0,0,1,338.72,218.87Z"></path>
            <path class="d1443386-a25c-4ced-843f-ee84e0b24e17" d="M352.52,216.28a2.72,2.72,0,0,1-.28,1.28,2.45,2.45,0,0,1-.77.92,3.46,3.46,0,0,1-1.16.55,5.21,5.21,0,0,1-1.46.19,11,11,0,0,1-1.92-.18,6.11,6.11,0,0,1-1.81-.59.29.29,0,0,1-.14-.13c0-.06,0-.13,0-.22l.31-.67c.07-.16.19-.21.38-.14a6.71,6.71,0,0,0,1.62.54,8,8,0,0,0,1.53.17,2.91,2.91,0,0,0,1.64-.42,1.38,1.38,0,0,0,.63-1.24,1.43,1.43,0,0,0-.67-1.24,9.16,9.16,0,0,0-1.9-.91,12.24,12.24,0,0,1-1.43-.59,4.18,4.18,0,0,1-1-.64,2,2,0,0,1-.54-.76,2.5,2.5,0,0,1-.17-1,2.54,2.54,0,0,1,.9-2,3.78,3.78,0,0,1,2.57-.79,9.85,9.85,0,0,1,1.56.13,7.09,7.09,0,0,1,1.5.44.24.24,0,0,1,.13.34l-.31.77a.2.2,0,0,1-.12.11l-.16,0a7.65,7.65,0,0,0-1.36-.42,7.53,7.53,0,0,0-1.28-.11,2.31,2.31,0,0,0-1.45.41,1.29,1.29,0,0,0-.54,1.06,1.33,1.33,0,0,0,.14.65,1.46,1.46,0,0,0,.43.48,4.31,4.31,0,0,0,.76.42q.48.21,1.14.45a9.71,9.71,0,0,1,1.22.51,4.51,4.51,0,0,1,1,.64,2.81,2.81,0,0,1,.69.85A2.41,2.41,0,0,1,352.52,216.28Z"></path>
            <path class="d1443386-a25c-4ced-843f-ee84e0b24e17" d="M358.81,218a5.11,5.11,0,0,0,1.35-.18,4.85,4.85,0,0,0,1.11-.43c.11-.06.18-.07.23,0a.32.32,0,0,1,.13.13l.31.69c.07.08.09.15.06.2a.46.46,0,0,1-.13.16,5.62,5.62,0,0,1-1.6.55,8.71,8.71,0,0,1-1.66.16,4.17,4.17,0,0,1-3.34-1.32,5.93,5.93,0,0,1-1.13-4,7.37,7.37,0,0,1,.32-2.29,5.12,5.12,0,0,1,.93-1.73,4,4,0,0,1,1.47-1.09,4.62,4.62,0,0,1,1.93-.39,7.21,7.21,0,0,1,1.48.16,5.58,5.58,0,0,1,1.4.53c.16.1.19.21.1.36l-.36.67a.31.31,0,0,1-.11.14.28.28,0,0,1-.22,0,7.76,7.76,0,0,0-1.06-.38,4.7,4.7,0,0,0-1.23-.16,2.91,2.91,0,0,0-1.47.35,3,3,0,0,0-1,.94,4.1,4.1,0,0,0-.57,1.35,6.77,6.77,0,0,0-.18,1.58,7.93,7.93,0,0,0,.16,1.59,3.37,3.37,0,0,0,.54,1.28,2.51,2.51,0,0,0,1,.86A3.42,3.42,0,0,0,358.81,218Z"></path>
            <path class="d1443386-a25c-4ced-843f-ee84e0b24e17" d="M366,205.81a.91.91,0,0,1-.29.69.94.94,0,0,1-.7.28,1,1,0,0,1-.69-.28.89.89,0,0,1-.3-.69,1,1,0,0,1,.3-.71.94.94,0,0,1,.69-.29.91.91,0,0,1,.7.29A1,1,0,0,1,366,205.81Zm-.28,12.94a.25.25,0,0,1-.06.2s-.11.05-.22.05h-.88a.31.31,0,0,1-.21-.05s-.07-.1-.07-.2v-9.84c0-.11,0-.18.07-.21a.38.38,0,0,1,.21,0h.88a.37.37,0,0,1,.22,0s.06.1.06.21Z"></path>
            <path class="d1443386-a25c-4ced-843f-ee84e0b24e17" d="M372.81,208.43a5.09,5.09,0,0,1,1.93.33,3.45,3.45,0,0,1,1.33.92,3.76,3.76,0,0,1,.78,1.4,5.82,5.82,0,0,1,.26,1.77,1.27,1.27,0,0,1-.39,1.1,1.64,1.64,0,0,1-.93.26h-6A5.23,5.23,0,0,0,370,216a3,3,0,0,0,.7,1.15,2.59,2.59,0,0,0,1.05.64,4.21,4.21,0,0,0,1.3.2,4.91,4.91,0,0,0,1.27-.16,5.15,5.15,0,0,0,1.06-.39c.16-.08.27-.06.34.07l.35.7c.08.16.05.27-.1.34a4.41,4.41,0,0,1-1.47.57,8.27,8.27,0,0,1-1.54.15,4.52,4.52,0,0,1-3.41-1.27,5.67,5.67,0,0,1-1.25-4.07,7.3,7.3,0,0,1,.34-2.34,4.84,4.84,0,0,1,.93-1.71,4,4,0,0,1,1.42-1A4.47,4.47,0,0,1,372.81,208.43Zm2.92,4.6a5.84,5.84,0,0,0-.14-1.28,2.93,2.93,0,0,0-.47-1.08,2.22,2.22,0,0,0-.9-.74,3.3,3.3,0,0,0-1.42-.27,2.78,2.78,0,0,0-1.24.26,2.83,2.83,0,0,0-.92.72,3.34,3.34,0,0,0-.58,1.07,4.91,4.91,0,0,0-.25,1.32Z"></path>
            <path class="d1443386-a25c-4ced-843f-ee84e0b24e17" d="M387.52,219a.3.3,0,0,1-.21.05h-.9a.28.28,0,0,1-.2-.05s-.07-.1-.07-.2v-5.27a8,8,0,0,0-.15-1.65,2.72,2.72,0,0,0-.52-1.18,2.31,2.31,0,0,0-1-.7,4.9,4.9,0,0,0-1.66-.24l-.83,0a9,9,0,0,0-1.28.17v8.84a.25.25,0,0,1-.06.2s-.11.05-.22.05h-.89a.28.28,0,0,1-.2-.05c-.05,0-.07-.1-.07-.2v-8.82a1.17,1.17,0,0,1,1.06-1.3l.58-.08.71-.07.71,0h.58a7.48,7.48,0,0,1,2.15.28,3.28,3.28,0,0,1,1.47.87,3.51,3.51,0,0,1,.83,1.54,8.38,8.38,0,0,1,.27,2.28v5.35A.25.25,0,0,1,387.52,219Z"></path>
            <path class="d1443386-a25c-4ced-843f-ee84e0b24e17" d="M394.44,218a5.49,5.49,0,0,0,2.47-.61c.1-.06.18-.07.22,0a.32.32,0,0,1,.13.13l.32.69c.06.08.08.15.05.2a.46.46,0,0,1-.13.16,5.62,5.62,0,0,1-1.6.55,8.71,8.71,0,0,1-1.66.16,4.17,4.17,0,0,1-3.34-1.32,5.93,5.93,0,0,1-1.13-4,7.68,7.68,0,0,1,.32-2.29,5.12,5.12,0,0,1,.93-1.73,4,4,0,0,1,1.47-1.09,4.65,4.65,0,0,1,1.93-.39,7.14,7.14,0,0,1,1.48.16,5.58,5.58,0,0,1,1.4.53c.16.1.19.21.1.36l-.36.67a.26.26,0,0,1-.11.14.28.28,0,0,1-.22,0,7.76,7.76,0,0,0-1.06-.38,4.7,4.7,0,0,0-1.23-.16,2.91,2.91,0,0,0-1.47.35,2.87,2.87,0,0,0-1,.94,3.92,3.92,0,0,0-.58,1.35,7.36,7.36,0,0,0-.17,1.58,8,8,0,0,0,.15,1.59,3.54,3.54,0,0,0,.54,1.28,2.58,2.58,0,0,0,1,.86A3.42,3.42,0,0,0,394.44,218Z"></path>
            <path class="d1443386-a25c-4ced-843f-ee84e0b24e17" d="M403.59,208.43a5.09,5.09,0,0,1,1.93.33,3.45,3.45,0,0,1,1.33.92,3.76,3.76,0,0,1,.78,1.4,5.82,5.82,0,0,1,.26,1.77,1.27,1.27,0,0,1-.39,1.1,1.64,1.64,0,0,1-.93.26h-6a5.23,5.23,0,0,0,.26,1.74,3.11,3.11,0,0,0,.7,1.15,2.59,2.59,0,0,0,1.05.64,4.21,4.21,0,0,0,1.3.2,4.91,4.91,0,0,0,1.27-.16,5.15,5.15,0,0,0,1.06-.39c.16-.08.27-.06.34.07l.35.7c.08.16.05.27-.1.34a4.41,4.41,0,0,1-1.47.57,8.27,8.27,0,0,1-1.54.15,4.52,4.52,0,0,1-3.41-1.27,5.67,5.67,0,0,1-1.25-4.07,7.3,7.3,0,0,1,.34-2.34,4.7,4.7,0,0,1,.94-1.71,3.82,3.82,0,0,1,1.42-1A4.38,4.38,0,0,1,403.59,208.43Zm2.92,4.6a5.84,5.84,0,0,0-.14-1.28,2.93,2.93,0,0,0-.47-1.08,2.22,2.22,0,0,0-.9-.74,3.3,3.3,0,0,0-1.42-.27,2.78,2.78,0,0,0-1.24.26,2.83,2.83,0,0,0-.92.72,3.34,3.34,0,0,0-.58,1.07,4.91,4.91,0,0,0-.25,1.32Z"></path>
            <path class="d1443386-a25c-4ced-843f-ee84e0b24e17" d="M416.94,216.28a2.72,2.72,0,0,1-.28,1.28,2.45,2.45,0,0,1-.77.92,3.37,3.37,0,0,1-1.16.55,5.21,5.21,0,0,1-1.46.19,11.07,11.07,0,0,1-1.92-.18,6.11,6.11,0,0,1-1.81-.59.29.29,0,0,1-.14-.13c0-.06,0-.13,0-.22l.31-.67c.07-.16.19-.21.38-.14a6.71,6.71,0,0,0,1.62.54,8,8,0,0,0,1.53.17,2.91,2.91,0,0,0,1.64-.42,1.38,1.38,0,0,0,.63-1.24,1.41,1.41,0,0,0-.67-1.24,9.3,9.3,0,0,0-1.89-.91,11.77,11.77,0,0,1-1.44-.59,4.18,4.18,0,0,1-1-.64,2,2,0,0,1-.54-.76,2.7,2.7,0,0,1-.17-1,2.54,2.54,0,0,1,.9-2,3.8,3.8,0,0,1,2.57-.79,9.85,9.85,0,0,1,1.56.13,7.09,7.09,0,0,1,1.5.44.25.25,0,0,1,.14.34l-.32.77a.2.2,0,0,1-.12.11l-.16,0a7.65,7.65,0,0,0-1.36-.42,7.44,7.44,0,0,0-1.28-.11,2.31,2.31,0,0,0-1.45.41,1.29,1.29,0,0,0-.54,1.06,1.45,1.45,0,0,0,.14.65,1.46,1.46,0,0,0,.43.48,4.44,4.44,0,0,0,.77.42q.47.21,1.14.45a10.22,10.22,0,0,1,1.21.51,4.84,4.84,0,0,1,1,.64,2.93,2.93,0,0,1,.68.85A2.41,2.41,0,0,1,416.94,216.28Z"></path>
            <path class="d1443386-a25c-4ced-843f-ee84e0b24e17" d="M434.05,219a.8.8,0,0,1-.3,0,.45.45,0,0,1-.21-.17l-1.69-2a7.31,7.31,0,0,1-1.83,1.78,4.18,4.18,0,0,1-2.33.65,3.57,3.57,0,0,1-2.59-.89,3.25,3.25,0,0,1-.91-2.42,4,4,0,0,1,.25-1.37,5.72,5.72,0,0,1,.67-1.27,5.9,5.9,0,0,1,1-1.11,9.32,9.32,0,0,1,1.28-.93,8.4,8.4,0,0,1-1.14-1.67,3.55,3.55,0,0,1-.44-1.6,3,3,0,0,1,.26-1.25,2.81,2.81,0,0,1,.69-1,3.14,3.14,0,0,1,1-.61A3.63,3.63,0,0,1,429,205a3.76,3.76,0,0,1,1.22.2,2.72,2.72,0,0,1,1,.57,2.76,2.76,0,0,1,.66.89,2.8,2.8,0,0,1,.23,1.14,3.45,3.45,0,0,1-.21,1.23,3.89,3.89,0,0,1-.61,1,5.52,5.52,0,0,1-.88.86q-.51.39-1.08.75l.65.85.57.72.56.69.59.74c.2-.33.4-.67.62-1a8.58,8.58,0,0,1,.72-1,5.45,5.45,0,0,1,.87-.79,3.81,3.81,0,0,1,1-.54l.45-.13a3.32,3.32,0,0,1,.44-.06.19.19,0,0,1,.24.15l.13.77c0,.09,0,.16,0,.19a.39.39,0,0,1-.16.07,3.49,3.49,0,0,0-1.31.45,4.05,4.05,0,0,0-.9.79,5.5,5.5,0,0,0-.66,1l-.58,1.1a2,2,0,0,0,.2.28l.35.4.42.5c.15.19.31.37.46.54.36.42.75.87,1.19,1.36a.21.21,0,0,1,0,.17.12.12,0,0,1-.14.1ZM431,215.75,429.61,214c-.46-.56-.92-1.15-1.39-1.77-.34.22-.67.46-1,.71a5.93,5.93,0,0,0-.84.82,4,4,0,0,0-.58.95,2.9,2.9,0,0,0-.21,1.09,2.49,2.49,0,0,0,.17,1,1.78,1.78,0,0,0,.48.67,1.7,1.7,0,0,0,.7.38,3,3,0,0,0,.87.12,3,3,0,0,0,1.68-.57A5.42,5.42,0,0,0,431,215.75Zm-.26-7.87a1.9,1.9,0,0,0-.1-.61,1.45,1.45,0,0,0-.3-.56,1.57,1.57,0,0,0-.53-.41,1.79,1.79,0,0,0-.75-.15,1.78,1.78,0,0,0-1.31.48,1.7,1.7,0,0,0-.48,1.25,2.86,2.86,0,0,0,.43,1.45,11.2,11.2,0,0,0,.92,1.31c.24-.14.48-.31.73-.49a5,5,0,0,0,.68-.62,3.82,3.82,0,0,0,.51-.75A2,2,0,0,0,430.74,207.88Z"></path>
            <path class="d1443386-a25c-4ced-843f-ee84e0b24e17" d="M451.82,218.75a.25.25,0,0,1-.06.2.26.26,0,0,1-.19.05h-.92a.3.3,0,0,1-.21-.05.25.25,0,0,1-.06-.2V213a3.72,3.72,0,0,0-.69-2.47,2.72,2.72,0,0,0-2.17-.8,9.74,9.74,0,0,0-1.32.11,5,5,0,0,0-1.3.37v8.56a.25.25,0,0,1-.06.2s-.11.05-.22.05h-.88a.31.31,0,0,1-.21-.05s-.07-.1-.07-.2V204.84c0-.1,0-.17.07-.2a.31.31,0,0,1,.21,0h.88c.11,0,.18,0,.22,0a.25.25,0,0,1,.06.2v4.09a7.25,7.25,0,0,1,1.49-.39,10.69,10.69,0,0,1,1.36-.11,5.06,5.06,0,0,1,1.9.32,3,3,0,0,1,1.26.91,3.75,3.75,0,0,1,.7,1.43,7.12,7.12,0,0,1,.23,1.92Z"></path>
            <path class="d1443386-a25c-4ced-843f-ee84e0b24e17" d="M454.46,208.68a.4.4,0,0,1,.22-.05h.89a.34.34,0,0,1,.21.05s.06.1.06.21v5.36a9.91,9.91,0,0,0,.12,1.66,2.38,2.38,0,0,0,.48,1.13,2,2,0,0,0,1,.66,5.25,5.25,0,0,0,1.69.22l.82,0a9.3,9.3,0,0,0,1.27-.17v-8.83q0-.16.06-.21a.34.34,0,0,1,.21-.05h.9a.37.37,0,0,1,.2.05.26.26,0,0,1,.07.21v8.83a1.19,1.19,0,0,1-1.08,1.3l-.62.08c-.23,0-.47.05-.7.06l-.68,0H459a7.88,7.88,0,0,1-2.16-.26,3.09,3.09,0,0,1-1.41-.82,3.43,3.43,0,0,1-.79-1.49,9,9,0,0,1-.25-2.26v-5.48Q454.4,208.73,454.46,208.68Z"></path>
            <path class="d1443386-a25c-4ced-843f-ee84e0b24e17" d="M475.81,208.43a5.15,5.15,0,0,1,2,.35,3.21,3.21,0,0,1,1.3,1,4,4,0,0,1,.7,1.51,8.48,8.48,0,0,1,.21,2v5.55c0,.1,0,.17-.05.19s-.1,0-.21,0h-.9a.39.39,0,0,1-.22,0s-.06-.09-.06-.19v-5.25a5.11,5.11,0,0,0-.65-2.88,2.62,2.62,0,0,0-2.32-.93,4.14,4.14,0,0,0-.66.06,6.91,6.91,0,0,0-.76.17c-.26.07-.51.16-.75.25a5.05,5.05,0,0,0-.66.31,4,4,0,0,1,.38,1.26,12.75,12.75,0,0,1,.1,1.64v5.37c0,.1,0,.17-.06.19a.41.41,0,0,1-.22,0h-.9a.33.33,0,0,1-.2,0s-.06-.09-.06-.19v-5.41a7.24,7.24,0,0,0-.15-1.56,3,3,0,0,0-.5-1.15,2.2,2.2,0,0,0-1-.7,4.33,4.33,0,0,0-1.56-.24l-.75,0a9.28,9.28,0,0,0-1.2.17v8.84a.25.25,0,0,1-.06.2s-.11.05-.22.05h-.88a.31.31,0,0,1-.21-.05s-.07-.1-.07-.2v-8.82a1.17,1.17,0,0,1,1.07-1.3l.53-.08.61-.07.61,0h.52a6.32,6.32,0,0,1,2,.27,3.68,3.68,0,0,1,1.41.86h0a6.44,6.44,0,0,1,1.73-.82A6.9,6.9,0,0,1,475.81,208.43Z"></path>
            <path class="d1443386-a25c-4ced-843f-ee84e0b24e17" d="M490.49,218.1a.46.46,0,0,1-.28.47,7.32,7.32,0,0,1-1.89.51,14.5,14.5,0,0,1-1.93.14,6.35,6.35,0,0,1-2.07-.28,3.33,3.33,0,0,1-1.28-.72,2.34,2.34,0,0,1-.66-1,3.78,3.78,0,0,1-.19-1.21,3.53,3.53,0,0,1,.26-1.38,3.08,3.08,0,0,1,.77-1.12,3.82,3.82,0,0,1,1.32-.74,5.78,5.78,0,0,1,1.87-.26H489V212a3.71,3.71,0,0,0-.1-.9,1.47,1.47,0,0,0-.37-.71,1.82,1.82,0,0,0-.77-.46,4.13,4.13,0,0,0-1.28-.17,10.13,10.13,0,0,0-2.76.44.7.7,0,0,1-.22,0s-.09-.06-.12-.15l-.2-.72a.24.24,0,0,1,.16-.3c.24-.09.49-.17.77-.25l.86-.19a8.51,8.51,0,0,1,.9-.11l.84,0a4.07,4.07,0,0,1,2.83.85,3.23,3.23,0,0,1,.92,2.49ZM489,213.76h-2.54a7.17,7.17,0,0,0-.85.06,2.83,2.83,0,0,0-.94.28,2.2,2.2,0,0,0-.75.68,2.16,2.16,0,0,0-.3,1.22,1.91,1.91,0,0,0,.23,1,1.75,1.75,0,0,0,.61.63,2.46,2.46,0,0,0,.87.33,5.72,5.72,0,0,0,1,.09l.48,0,.68-.06a6.71,6.71,0,0,0,.76-.13,6.17,6.17,0,0,0,.72-.21Z"></path>
            <path class="d1443386-a25c-4ced-843f-ee84e0b24e17" d="M501.36,219s-.11.05-.22.05h-.89A.33.33,0,0,1,500,219a.25.25,0,0,1-.06-.2v-5.27a8,8,0,0,0-.15-1.65,2.85,2.85,0,0,0-.52-1.18,2.31,2.31,0,0,0-1-.7,5,5,0,0,0-1.67-.24l-.82,0a9.16,9.16,0,0,0-1.29.17v8.84a.25.25,0,0,1-.06.2.3.3,0,0,1-.21.05h-.89a.33.33,0,0,1-.21-.05.25.25,0,0,1-.07-.2v-8.82a1.17,1.17,0,0,1,1.07-1.3l.58-.08.7-.07.71,0h.58a7.55,7.55,0,0,1,2.16.28,3.3,3.3,0,0,1,1.46.87,3.52,3.52,0,0,1,.84,1.54,8.42,8.42,0,0,1,.26,2.28v5.35C501.41,218.85,501.4,218.92,501.36,219Z"></path>
            <path class="d1443386-a25c-4ced-843f-ee84e0b24e17" d="M506.13,205.81a.91.91,0,0,1-.29.69.94.94,0,0,1-.7.28,1,1,0,0,1-.69-.28.88.88,0,0,1-.29-.69,1,1,0,0,1,.29-.71.94.94,0,0,1,.69-.29.91.91,0,0,1,.7.29A1,1,0,0,1,506.13,205.81Zm-.28,12.94a.25.25,0,0,1-.06.2.3.3,0,0,1-.21.05h-.89a.33.33,0,0,1-.21-.05c-.05,0-.07-.1-.07-.2v-9.84c0-.11,0-.18.07-.21a.41.41,0,0,1,.21,0h.89a.36.36,0,0,1,.21,0s.06.1.06.21Z"></path>
            <path class="d1443386-a25c-4ced-843f-ee84e0b24e17" d="M508.2,209.81c-.11,0-.17,0-.2-.07a.27.27,0,0,1,0-.16v-.48a.32.32,0,0,1,0-.19.31.31,0,0,1,.2-.1l1.56-.26.27-1.91a.49.49,0,0,1,.07-.24.72.72,0,0,1,.22-.12l.52-.19c.18,0,.28,0,.28.21v2.35h2.3c.11,0,.17,0,.2.07a.34.34,0,0,1,0,.19v.67a.27.27,0,0,1,0,.17s-.09.06-.2.06h-2.3v6.65a1.67,1.67,0,0,0,.29,1.09,1.41,1.41,0,0,0,1.15.37l.69,0c.3,0,.57-.07.82-.12a.37.37,0,0,1,.2,0,.18.18,0,0,1,.06.13l.16.75a1,1,0,0,1,0,.17s-.06.08-.15.12a5.46,5.46,0,0,1-1.14.21c-.4,0-.69,0-.87,0a4.15,4.15,0,0,1-1.26-.16,1.81,1.81,0,0,1-.82-.48,1.87,1.87,0,0,1-.45-.82,4.47,4.47,0,0,1-.13-1.16v-6.77Z"></path>
            <path class="d1443386-a25c-4ced-843f-ee84e0b24e17" d="M518.1,205.81a.91.91,0,0,1-.29.69.94.94,0,0,1-.7.28,1,1,0,0,1-.69-.28.89.89,0,0,1-.3-.69,1,1,0,0,1,.3-.71.94.94,0,0,1,.69-.29.91.91,0,0,1,.7.29A1,1,0,0,1,518.1,205.81Zm-.28,12.94a.25.25,0,0,1-.06.2s-.11.05-.22.05h-.88a.31.31,0,0,1-.21-.05c-.05,0-.07-.1-.07-.2v-9.84c0-.11,0-.18.07-.21a.38.38,0,0,1,.21,0h.88a.37.37,0,0,1,.22,0s.06.1.06.21Z"></path>
            <path class="d1443386-a25c-4ced-843f-ee84e0b24e17" d="M524.92,208.43a5.09,5.09,0,0,1,1.93.33,3.45,3.45,0,0,1,1.33.92,3.76,3.76,0,0,1,.78,1.4,5.82,5.82,0,0,1,.26,1.77,1.27,1.27,0,0,1-.39,1.1,1.64,1.64,0,0,1-.93.26h-6a5.23,5.23,0,0,0,.26,1.74,3,3,0,0,0,.7,1.15,2.59,2.59,0,0,0,1,.64,4.21,4.21,0,0,0,1.3.2,4.91,4.91,0,0,0,1.27-.16,5.15,5.15,0,0,0,1.06-.39c.16-.08.27-.06.34.07l.35.7c.08.16,0,.27-.1.34a4.41,4.41,0,0,1-1.47.57,8.27,8.27,0,0,1-1.54.15,4.52,4.52,0,0,1-3.41-1.27,5.67,5.67,0,0,1-1.25-4.07,7.3,7.3,0,0,1,.34-2.34,4.84,4.84,0,0,1,.93-1.71,4,4,0,0,1,1.42-1A4.47,4.47,0,0,1,524.92,208.43Zm2.92,4.6a5.84,5.84,0,0,0-.14-1.28,2.93,2.93,0,0,0-.47-1.08,2.22,2.22,0,0,0-.9-.74,3.3,3.3,0,0,0-1.42-.27,2.78,2.78,0,0,0-1.24.26,2.83,2.83,0,0,0-.92.72,3.34,3.34,0,0,0-.58,1.07,4.91,4.91,0,0,0-.25,1.32Z"></path>
            <path class="d1443386-a25c-4ced-843f-ee84e0b24e17" d="M538.27,216.28a2.72,2.72,0,0,1-.28,1.28,2.45,2.45,0,0,1-.77.92,3.46,3.46,0,0,1-1.16.55,5.21,5.21,0,0,1-1.46.19,11.07,11.07,0,0,1-1.92-.18,6.11,6.11,0,0,1-1.81-.59.29.29,0,0,1-.14-.13c0-.06,0-.13,0-.22l.31-.67c.07-.16.19-.21.38-.14a6.71,6.71,0,0,0,1.62.54,8,8,0,0,0,1.53.17,2.91,2.91,0,0,0,1.64-.42,1.38,1.38,0,0,0,.63-1.24,1.43,1.43,0,0,0-.67-1.24,9.16,9.16,0,0,0-1.9-.91,12.24,12.24,0,0,1-1.43-.59,4.18,4.18,0,0,1-1-.64,2,2,0,0,1-.54-.76,2.5,2.5,0,0,1-.17-1,2.54,2.54,0,0,1,.9-2,3.78,3.78,0,0,1,2.57-.79,9.85,9.85,0,0,1,1.56.13,7.09,7.09,0,0,1,1.5.44.24.24,0,0,1,.13.34l-.31.77a.2.2,0,0,1-.12.11l-.16,0a7.65,7.65,0,0,0-1.36-.42,7.53,7.53,0,0,0-1.28-.11,2.31,2.31,0,0,0-1.45.41,1.29,1.29,0,0,0-.54,1.06,1.33,1.33,0,0,0,.14.65,1.46,1.46,0,0,0,.43.48,4.7,4.7,0,0,0,.76.42q.48.21,1.14.45a9.71,9.71,0,0,1,1.22.51,4.84,4.84,0,0,1,1,.64,2.93,2.93,0,0,1,.68.85A2.41,2.41,0,0,1,538.27,216.28Z"></path>
            <path class="d1443386-a25c-4ced-843f-ee84e0b24e17" d="M554.14,213.78a6.09,6.09,0,0,1-1.18,4,4.18,4.18,0,0,1-3.38,1.4,4.13,4.13,0,0,1-3.34-1.37,6.07,6.07,0,0,1-1.15-4,7.21,7.21,0,0,1,.34-2.32,4.66,4.66,0,0,1,.94-1.7,4.06,4.06,0,0,1,1.44-1,4.53,4.53,0,0,1,1.83-.36,4.07,4.07,0,0,1,3.35,1.41A6,6,0,0,1,554.14,213.78Zm-1.44.07a8.22,8.22,0,0,0-.14-1.58,4.25,4.25,0,0,0-.47-1.34,2.4,2.4,0,0,0-.94-.93,3,3,0,0,0-1.5-.34,2.84,2.84,0,0,0-1.42.33,2.89,2.89,0,0,0-1,.9,4.13,4.13,0,0,0-.55,1.32,6.71,6.71,0,0,0-.18,1.58,8.18,8.18,0,0,0,.16,1.7,3.9,3.9,0,0,0,.51,1.34,2.46,2.46,0,0,0,.95.89,3.06,3.06,0,0,0,1.46.32,2.89,2.89,0,0,0,1.49-.37,2.65,2.65,0,0,0,.95-1,4.06,4.06,0,0,0,.51-1.34A8.6,8.6,0,0,0,552.7,213.85Z"></path>
            <path class="d1443386-a25c-4ced-843f-ee84e0b24e17" d="M565,213.8a8.06,8.06,0,0,1-.28,2.13,4.82,4.82,0,0,1-.85,1.71,4.16,4.16,0,0,1-1.43,1.16,4.5,4.5,0,0,1-2,.42,11.83,11.83,0,0,1-1.26-.08,9,9,0,0,1-1.44-.29v3.92a.3.3,0,0,1,0,.2.42.42,0,0,1-.21,0h-.9a.52.52,0,0,1-.21,0s-.07-.1-.07-.2V209.46a.31.31,0,0,1,.22-.32,7.88,7.88,0,0,1,2-.56,13.82,13.82,0,0,1,2-.15,4.67,4.67,0,0,1,2,.4,3.75,3.75,0,0,1,1.41,1.1,4.8,4.8,0,0,1,.82,1.7A8.21,8.21,0,0,1,565,213.8Zm-1.5,0a6.85,6.85,0,0,0-.24-2,3.33,3.33,0,0,0-.67-1.27,2.5,2.5,0,0,0-1-.69,4,4,0,0,0-1.33-.2,8.78,8.78,0,0,0-1.25.1,5.52,5.52,0,0,0-1.25.33v7.45a7.16,7.16,0,0,0,1.43.35c.4,0,.75.07,1,.07a3.77,3.77,0,0,0,1.32-.23,2.47,2.47,0,0,0,1-.73,3.48,3.48,0,0,0,.68-1.3A6.34,6.34,0,0,0,563.53,213.8Z"></path>
            <path class="d1443386-a25c-4ced-843f-ee84e0b24e17" d="M571.3,208.43a5.09,5.09,0,0,1,1.93.33,3.45,3.45,0,0,1,1.33.92,3.76,3.76,0,0,1,.78,1.4,5.82,5.82,0,0,1,.26,1.77,1.27,1.27,0,0,1-.39,1.1,1.64,1.64,0,0,1-.93.26h-6a5.23,5.23,0,0,0,.26,1.74,3,3,0,0,0,.7,1.15,2.59,2.59,0,0,0,1,.64,4.15,4.15,0,0,0,1.29.2,4.93,4.93,0,0,0,1.28-.16,5.15,5.15,0,0,0,1.06-.39c.16-.08.27-.06.34.07l.35.7c.08.16,0,.27-.1.34a4.38,4.38,0,0,1-1.48.57,8.19,8.19,0,0,1-1.54.15A4.55,4.55,0,0,1,568,218a5.71,5.71,0,0,1-1.24-4.07,7.3,7.3,0,0,1,.34-2.34,4.84,4.84,0,0,1,.93-1.71,3.9,3.9,0,0,1,1.42-1A4.47,4.47,0,0,1,571.3,208.43Zm2.92,4.6a5.84,5.84,0,0,0-.14-1.28,3.11,3.11,0,0,0-.47-1.08,2.36,2.36,0,0,0-.9-.74,3.33,3.33,0,0,0-1.42-.27,2.75,2.75,0,0,0-1.24.26,2.83,2.83,0,0,0-.92.72,3.34,3.34,0,0,0-.58,1.07,4.91,4.91,0,0,0-.25,1.32Z"></path>
            <path class="d1443386-a25c-4ced-843f-ee84e0b24e17" d="M586,219s-.11.05-.22.05h-.89a.33.33,0,0,1-.21-.05.25.25,0,0,1-.06-.2v-5.27a8,8,0,0,0-.15-1.65,2.72,2.72,0,0,0-.52-1.18,2.31,2.31,0,0,0-1-.7,4.92,4.92,0,0,0-1.67-.24l-.82,0a8.85,8.85,0,0,0-1.28.17v8.84a.25.25,0,0,1-.06.2.33.33,0,0,1-.22.05H578a.33.33,0,0,1-.21-.05.25.25,0,0,1-.06-.2v-8.82a1.17,1.17,0,0,1,1.06-1.3l.58-.08.71-.07.7,0h.58a7.55,7.55,0,0,1,2.16.28,3.25,3.25,0,0,1,1.46.87,3.42,3.42,0,0,1,.84,1.54,8.38,8.38,0,0,1,.27,2.28v5.35A.25.25,0,0,1,586,219Z"></path>
            <path class="d1443386-a25c-4ced-843f-ee84e0b24e17" d="M598.13,218a5.11,5.11,0,0,0,1.35-.18,4.77,4.77,0,0,0,1.12-.43c.1-.06.18-.07.23,0a.38.38,0,0,1,.12.13l.32.69a.2.2,0,0,1,.06.2.5.5,0,0,1-.14.16,5.51,5.51,0,0,1-1.6.55,8.54,8.54,0,0,1-1.65.16,4.18,4.18,0,0,1-3.35-1.32,6,6,0,0,1-1.13-4,7.36,7.36,0,0,1,.33-2.29,4.93,4.93,0,0,1,.92-1.73,4,4,0,0,1,1.47-1.09,4.65,4.65,0,0,1,1.93-.39,7.07,7.07,0,0,1,1.48.16,5.44,5.44,0,0,1,1.4.53c.16.1.19.21.1.36l-.35.67a.4.4,0,0,1-.11.14.31.31,0,0,1-.23,0,8.12,8.12,0,0,0-1-.38,4.83,4.83,0,0,0-1.24-.16,2.89,2.89,0,0,0-1.46.35,2.81,2.81,0,0,0-1,.94,4.1,4.1,0,0,0-.57,1.35,6.77,6.77,0,0,0-.18,1.58,7.26,7.26,0,0,0,.16,1.59,3.36,3.36,0,0,0,.53,1.28,2.54,2.54,0,0,0,1,.86A3.38,3.38,0,0,0,598.13,218Z"></path>
            <path class="d1443386-a25c-4ced-843f-ee84e0b24e17" d="M606.58,218.87s-.07.07-.16.11a2.85,2.85,0,0,1-.71.18,5.67,5.67,0,0,1-.67,0,1.55,1.55,0,0,1-1.3-.46,2.29,2.29,0,0,1-.36-1.41V204.84a.25.25,0,0,1,.06-.2.3.3,0,0,1,.21,0h.9a.3.3,0,0,1,.21,0,.25.25,0,0,1,.06.2v12a1.54,1.54,0,0,0,.15.8.65.65,0,0,0,.58.23l.37,0,.34,0a.18.18,0,0,1,.24.16l.09.65A.3.3,0,0,1,606.58,218.87Z"></path>
            <path class="d1443386-a25c-4ced-843f-ee84e0b24e17" d="M616.89,213.78a6.14,6.14,0,0,1-1.18,4,4.21,4.21,0,0,1-3.39,1.4,4.11,4.11,0,0,1-3.33-1.37,6.07,6.07,0,0,1-1.15-4,7.51,7.51,0,0,1,.33-2.32,4.67,4.67,0,0,1,1-1.7,3.94,3.94,0,0,1,1.43-1,4.53,4.53,0,0,1,1.83-.36,4.09,4.09,0,0,1,3.36,1.41A6.1,6.1,0,0,1,616.89,213.78Zm-1.44.07a9.1,9.1,0,0,0-.14-1.58,4.25,4.25,0,0,0-.47-1.34,2.54,2.54,0,0,0-.94-.93,3,3,0,0,0-1.51-.34A2.89,2.89,0,0,0,611,210a2.86,2.86,0,0,0-1,.9,3.93,3.93,0,0,0-.56,1.32,6.72,6.72,0,0,0-.17,1.58,9,9,0,0,0,.15,1.7,4.12,4.12,0,0,0,.52,1.34,2.44,2.44,0,0,0,.94.89,3.09,3.09,0,0,0,1.46.32,2.86,2.86,0,0,0,1.49-.37,2.76,2.76,0,0,0,1-1,4.28,4.28,0,0,0,.5-1.34A7.76,7.76,0,0,0,615.45,213.85Z"></path>
            <path class="d1443386-a25c-4ced-843f-ee84e0b24e17" d="M619.13,208.68a.4.4,0,0,1,.22-.05h.89a.4.4,0,0,1,.22.05s.06.1.06.21v5.36a10,10,0,0,0,.11,1.66,2.38,2.38,0,0,0,.48,1.13,2,2,0,0,0,1,.66,5.25,5.25,0,0,0,1.69.22l.82,0a9.3,9.3,0,0,0,1.27-.17v-8.83q0-.16.06-.21a.36.36,0,0,1,.21-.05h.9a.37.37,0,0,1,.2.05s.07.1.07.21v8.83a1.19,1.19,0,0,1-1.08,1.3l-.62.08c-.23,0-.47.05-.7.06l-.68,0h-.56a7.88,7.88,0,0,1-2.16-.26,3.09,3.09,0,0,1-1.41-.82,3.43,3.43,0,0,1-.79-1.49,9.09,9.09,0,0,1-.24-2.26v-5.48A.32.32,0,0,1,619.13,208.68Z"></path>
            <path class="d1443386-a25c-4ced-843f-ee84e0b24e17" d="M629.51,214a8.14,8.14,0,0,1,.27-2.11,5.16,5.16,0,0,1,.86-1.76,4.23,4.23,0,0,1,1.47-1.21,4.5,4.5,0,0,1,2.11-.46c.34,0,.73,0,1.17.07a6.81,6.81,0,0,1,1.35.29v-3.95a.25.25,0,0,1,.06-.2s.11,0,.22,0h.91c.09,0,.16,0,.19,0a.25.25,0,0,1,.06.2v13.37a.31.31,0,0,1-.19.32,7.25,7.25,0,0,1-2.06.56,15.27,15.27,0,0,1-1.94.13,5.07,5.07,0,0,1-2-.37,3.5,3.5,0,0,1-1.4-1,4.37,4.37,0,0,1-.79-1.65A9.06,9.06,0,0,1,629.51,214Zm1.5,0a6.54,6.54,0,0,0,.23,1.9,3.39,3.39,0,0,0,.66,1.24,2.34,2.34,0,0,0,1,.67,4.27,4.27,0,0,0,1.33.2l.58,0,.66-.08c.22,0,.45-.08.66-.13a3.62,3.62,0,0,0,.58-.18v-7.47a7.41,7.41,0,0,0-1.39-.35,10,10,0,0,0-1-.06,3.35,3.35,0,0,0-1.33.25,2.86,2.86,0,0,0-1,.79,4,4,0,0,0-.69,1.34A6.78,6.78,0,0,0,631,214Z"></path>
        </g>
    </g>
    <g>
        <g>
            <path class="d1443386-a25c-4ced-843f-ee84e0b24e17" d="M776.28,140s6.69,6.51,15.36,6.51c4.69,0,8.94-2.43,8.94-7.47,0-11-29.07-9.11-29.07-28,0-10.24,8.85-17.87,20.66-17.87,12.15,0,18.39,6.59,18.39,6.59l-4.86,9.11s-5.9-5.38-13.62-5.38c-5.21,0-9.29,3-9.29,7.38,0,10.93,29,8.24,29,27.94,0,9.81-7.46,18.05-20.31,18.05a29.84,29.84,0,0,1-21.26-8.41Z"></path>
            <path class="d1443386-a25c-4ced-843f-ee84e0b24e17" d="M837.68,115c10.4,0,15.33,5.94,15.33,5.94l-4.38,6.81a15.63,15.63,0,0,0-10.4-4.3c-7.35,0-12.13,5.55-12.13,12.36a12.14,12.14,0,0,0,12.44,12.51c6.73,0,11.73-5.08,11.73-5.08l3.84,7s-5.71,6.49-16.43,6.49c-13.22,0-21.67-9.31-21.67-20.89,0-11.34,8.45-20.88,21.67-20.88"></path>
            <path class="d1443386-a25c-4ced-843f-ee84e0b24e17" d="M860,100.26h9.86v8.84H860Zm0,15.65h9.94V155.8H860Z"></path>
            <path class="d1443386-a25c-4ced-843f-ee84e0b24e17" d="M896.75,115c11.5,0,17.68,8.37,17.68,18.93,0,1.17-.24,3.83-.24,3.83H886.66c.62,7,6,10.56,12,10.56,6.41,0,11.5-4.38,11.5-4.38L914,151a24.93,24.93,0,0,1-16,5.71c-13.22,0-21.43-9.54-21.43-20.89,0-12.28,8.37-20.88,20.26-20.88m7.66,16c-.15-5.4-3.52-8.3-7.9-8.3-5.08,0-8.6,3.13-9.54,8.3Z"></path>
            <path class="d1443386-a25c-4ced-843f-ee84e0b24e17" d="M921.08,115.91h9.55v4.61a24.16,24.16,0,0,1-.16,2.74h.16A15.47,15.47,0,0,1,944.78,115c8.84,0,13.85,4.61,13.85,15.17V155.8h-9.85V132.18c0-4.85-1.26-8.14-6.34-8.14a11,11,0,0,0-10.72,8.14,16.74,16.74,0,0,0-.7,5.32v18.3h-9.94Z"></path>
            <path class="d1443386-a25c-4ced-843f-ee84e0b24e17" d="M986.25,115c10.4,0,15.33,5.94,15.33,5.94l-4.38,6.81a15.63,15.63,0,0,0-10.4-4.3c-7.36,0-12.13,5.55-12.13,12.36a12.14,12.14,0,0,0,12.44,12.51c6.73,0,11.73-5.08,11.73-5.08l3.84,7s-5.71,6.49-16.43,6.49c-13.22,0-21.67-9.31-21.67-20.89,0-11.34,8.45-20.88,21.67-20.88"></path>
            <path class="d1443386-a25c-4ced-843f-ee84e0b24e17" d="M1026,115c11.5,0,17.68,8.37,17.68,18.93,0,1.17-.23,3.83-.23,3.83H1015.9c.63,7,6,10.56,12,10.56,6.42,0,11.5-4.38,11.5-4.38l3.83,7.12a24.92,24.92,0,0,1-16,5.71c-13.22,0-21.44-9.54-21.44-20.89,0-12.28,8.37-20.88,20.26-20.88m7.67,16c-.16-5.4-3.52-8.3-7.9-8.3-5.08,0-8.6,3.13-9.54,8.3Z"></path>
            <path class="d1443386-a25c-4ced-843f-ee84e0b24e17" d="M1053.07,143.91a16.68,16.68,0,0,0,10.87,4.38c2.82,0,5.24-1.25,5.24-3.6,0-5.94-19.4-5.16-19.4-18,0-7.43,6.65-11.73,15.25-11.73,9,0,13.38,4.53,13.38,4.53l-3.67,7.36a15.17,15.17,0,0,0-9.78-3.44c-2.58,0-5.09,1.09-5.09,3.6,0,5.63,19.4,4.92,19.4,17.75,0,6.65-5.79,12-15.25,12a22.3,22.3,0,0,1-15.49-5.87Z"></path>
            <path class="d1443386-a25c-4ced-843f-ee84e0b24e17" d="M1088,94.19h23.77c11.55,0,19.62,8.07,19.62,20s-8.07,20.31-19.62,20.31h-12.58V155.8H1088Zm21.69,30.63c6.51,0,10.33-4.16,10.33-10.59s-3.82-10.41-10.16-10.41h-10.67v21Z"></path>
            <path class="d1443386-a25c-4ced-843f-ee84e0b24e17" d="M1154.44,115c12.2,0,22,8.68,22,20.88s-9.78,20.89-21.9,20.89-22-8.6-22-20.89,9.78-20.88,21.91-20.88m.08,33.32c6.41,0,11.81-5,11.81-12.44s-5.4-12.43-11.81-12.43-11.89,5.08-11.89,12.43,5.39,12.44,11.89,12.44"></path>
        </g>
        <g>
            <path class="d1443386-a25c-4ced-843f-ee84e0b24e17" d="M781.41,175.8a11,11,0,0,1,7.88,2.92l-1.86,2.88a9.44,9.44,0,0,0-5.84-2.25c-4.51,0-7.16,3.37-7.16,7.34s2.74,7.64,7.19,7.64a9.21,9.21,0,0,0,6.2-2.71l2,2.8a11.47,11.47,0,0,1-8.39,3.46,11,11,0,0,1-.06-22.08Z"></path>
            <path class="d1443386-a25c-4ced-843f-ee84e0b24e17" d="M793.45,176.16h12.79v3.34h-8.91v5.6h7.19v3.34h-7.19v5.74h9.39v3.34H793.45Z"></path>
            <path class="d1443386-a25c-4ced-843f-ee84e0b24e17" d="M810.75,176.16h3.88l8.1,12.34a32,32,0,0,1,1.77,3.31h.06s-.21-2.05-.21-3.31V176.16h3.85v21.36h-3.85l-8.09-12.3a34.13,34.13,0,0,1-1.78-3.31h-.06s.21,2,.21,3.31v12.3h-3.88Z"></path>
            <path class="d1443386-a25c-4ced-843f-ee84e0b24e17" d="M838.05,179.5h-7v-3.34h17.9v3.34h-7v18h-3.88Z"></path>
            <path class="d1443386-a25c-4ced-843f-ee84e0b24e17" d="M851.77,176.16h6.89a9.92,9.92,0,0,1,4.3.6,6,6,0,0,1,3.49,5.84,6.15,6.15,0,0,1-3.61,5.84v.06a5.21,5.21,0,0,1,.72,1.05l4.4,8h-4.34l-4.24-8h-3.73v8h-3.88Zm7.37,10a3.1,3.1,0,0,0,3.37-3.37c0-2.05-.87-3.31-3.91-3.31h-3v6.68Z"></path>
            <path class="d1443386-a25c-4ced-843f-ee84e0b24e17" d="M871.57,176.16h12.79v3.34h-8.91v5.6h7.19v3.34h-7.19v5.74h9.39v3.34H871.57Z"></path>
            <path class="d1443386-a25c-4ced-843f-ee84e0b24e17" d="M896.19,176.16h12.27v3.34h-8.39v6.05h7.07v3.34h-7.07v8.63h-3.88Z"></path>
            <path class="d1443386-a25c-4ced-843f-ee84e0b24e17" d="M921.67,175.8a10.79,10.79,0,0,1,11.05,10.89,11,11,0,1,1-22.09,0A10.79,10.79,0,0,1,921.67,175.8Zm0,18.53c3.92,0,7-3.25,7-7.64a7,7,0,1,0-14.08,0C914.63,191.08,917.76,194.33,921.67,194.33Z"></path>
            <path class="d1443386-a25c-4ced-843f-ee84e0b24e17" d="M936.66,176.16h6.89a10,10,0,0,1,4.31.6,6,6,0,0,1,3.49,5.84,6.16,6.16,0,0,1-3.62,5.84v.06a4.92,4.92,0,0,1,.73,1.05l4.39,8h-4.33l-4.25-8h-3.73v8h-3.88Zm7.37,10a3.1,3.1,0,0,0,3.37-3.37c0-2.05-.87-3.31-3.91-3.31h-3v6.68Z"></path>
            <path class="d1443386-a25c-4ced-843f-ee84e0b24e17" d="M963.78,176.16h12.78v3.34h-8.9v5.6h7.19v3.34h-7.19v5.74H977v3.34H963.78Z"></path>
            <path class="d1443386-a25c-4ced-843f-ee84e0b24e17" d="M980.78,176.16h3.88v13.69c0,2.86,1.87,4.48,4.72,4.48s4.76-1.62,4.76-4.51V176.16H998v13.69c0,4.78-3.46,8-8.61,8s-8.63-3.25-8.63-8Z"></path>
            <path class="d1443386-a25c-4ced-843f-ee84e0b24e17" d="M1003.14,176.16H1010a9.92,9.92,0,0,1,4.3.6,6,6,0,0,1,3.49,5.84,6.15,6.15,0,0,1-3.61,5.84v.06a5.21,5.21,0,0,1,.72,1.05l4.4,8H1015l-4.24-8H1007v8h-3.88Zm7.37,10a3.1,3.1,0,0,0,3.37-3.37c0-2.05-.87-3.31-3.91-3.31h-3v6.68Z"></path>
            <path class="d1443386-a25c-4ced-843f-ee84e0b24e17" d="M1032.39,175.8a10.79,10.79,0,0,1,11,10.89,11,11,0,1,1-22.08,0A10.79,10.79,0,0,1,1032.39,175.8Zm0,18.53c3.91,0,7-3.25,7-7.64a7,7,0,1,0-14.08,0C1025.35,191.08,1028.48,194.33,1032.39,194.33Z"></path>
            <path class="d1443386-a25c-4ced-843f-ee84e0b24e17" d="M1047.37,176.16h8.25a6.55,6.55,0,0,1,6.8,7c0,4.15-2.8,7-6.8,7h-4.36v7.37h-3.89Zm7.53,10.62a3.36,3.36,0,0,0,3.58-3.67,3.31,3.31,0,0,0-3.52-3.61h-3.7v7.28Z"></path>
            <path class="d1443386-a25c-4ced-843f-ee84e0b24e17" d="M1065.85,176.16h12.79v3.34h-8.9v5.6h7.19v3.34h-7.19v5.74h9.38v3.34h-13.27Z"></path>
            <path class="d1443386-a25c-4ced-843f-ee84e0b24e17" d="M1093.78,192.05h-7.5l-1.8,5.47h-4l7.52-21.36h4.06l7.53,21.36h-4ZM1090,179.86s-.49,2.11-.91,3.31l-1.89,5.72h5.59l-1.89-5.72c-.39-1.2-.84-3.31-.84-3.31Z"></path>
            <path class="d1443386-a25c-4ced-843f-ee84e0b24e17" d="M1102.33,176.16h3.88l8.09,12.34a32.93,32.93,0,0,1,1.78,3.31h.06s-.22-2.05-.22-3.31V176.16h3.86v21.36h-3.86l-8.09-12.3a33.13,33.13,0,0,1-1.77-3.31H1106s.21,2,.21,3.31v12.3h-3.88Z"></path>
            <path class="d1443386-a25c-4ced-843f-ee84e0b24e17" d="M1133,192.05a8.58,8.58,0,0,0,5.33,2.25c1.62,0,3.1-.84,3.1-2.59,0-3.82-10.08-3.15-10.08-9.71,0-3.55,3.07-6.2,7.16-6.2a9.09,9.09,0,0,1,6.38,2.29l-1.69,3.15a7.79,7.79,0,0,0-4.72-1.86c-1.81,0-3.22,1.05-3.22,2.56,0,3.79,10,2.86,10,9.68,0,3.41-2.59,6.26-7,6.26a10.35,10.35,0,0,1-7.38-2.92Z"></path>
            <path class="d1443386-a25c-4ced-843f-ee84e0b24e17" d="M1153.6,179.5h-7v-3.34h17.91v3.34h-7v18h-3.89Z"></path>
            <path class="d1443386-a25c-4ced-843f-ee84e0b24e17" d="M1167,176.16h3.88v13.69c0,2.86,1.86,4.48,4.72,4.48s4.76-1.62,4.76-4.51V176.16h3.88v13.69c0,4.78-3.46,8-8.61,8s-8.63-3.25-8.63-8Z"></path>
            <path class="d1443386-a25c-4ced-843f-ee84e0b24e17" d="M1189.38,176.16h7.29c6.59,0,10.89,3.91,10.89,10.65s-4.3,10.71-10.89,10.71h-7.29Zm7.08,18c4.33,0,7.1-2.56,7.1-7.37s-2.83-7.31-7.1-7.31h-3.19v14.68Z"></path>
            <path class="d1443386-a25c-4ced-843f-ee84e0b24e17" d="M1211.62,176.16h3.89v21.36h-3.89Z"></path>
            <path class="d1443386-a25c-4ced-843f-ee84e0b24e17" d="M1220.92,176.16h12.79v3.34h-8.91v5.6H1232v3.34h-7.19v5.74h9.39v3.34h-13.27Z"></path>
            <path class="d1443386-a25c-4ced-843f-ee84e0b24e17" d="M1238.71,192.05a8.57,8.57,0,0,0,5.32,2.25c1.63,0,3.1-.84,3.1-2.59,0-3.82-10.08-3.15-10.08-9.71,0-3.55,3.07-6.2,7.16-6.2a9.06,9.06,0,0,1,6.38,2.29l-1.68,3.15a7.83,7.83,0,0,0-4.73-1.86c-1.8,0-3.22,1.05-3.22,2.56,0,3.79,10,2.86,10,9.68,0,3.41-2.58,6.26-7,6.26a10.34,10.34,0,0,1-7.37-2.92Z"></path>
            <path class="d1443386-a25c-4ced-843f-ee84e0b24e17" d="M782.52,220.71H775l-1.8,5.47h-4l7.53-21.36h4.06l7.52,21.36h-4Zm-3.76-12.19s-.48,2.11-.9,3.31l-1.9,5.72h5.6l-1.9-5.72c-.39-1.2-.84-3.31-.84-3.31Z"></path>
            <path class="d1443386-a25c-4ced-843f-ee84e0b24e17" d="M791.07,204.82H795l8.1,12.34a32,32,0,0,1,1.77,3.31h.06s-.21-2.05-.21-3.31V204.82h3.85v21.36h-3.85l-8.09-12.3a34.13,34.13,0,0,1-1.78-3.31h-.06s.21,2,.21,3.31v12.3h-3.88Z"></path>
            <path class="d1443386-a25c-4ced-843f-ee84e0b24e17" d="M813.94,204.82h7.28c6.59,0,10.9,3.91,10.9,10.65s-4.31,10.71-10.9,10.71h-7.28Zm7.07,18c4.34,0,7.1-2.55,7.1-7.37s-2.82-7.31-7.1-7.31h-3.19v14.68Z"></path>
            <path class="d1443386-a25c-4ced-843f-ee84e0b24e17" d="M853,204.46a11,11,0,0,1,7.88,2.92L859,210.27a9.42,9.42,0,0,0-5.84-2.26c-4.51,0-7.16,3.37-7.16,7.34s2.74,7.64,7.19,7.64a9.22,9.22,0,0,0,6.2-2.7l2.05,2.79a11.51,11.51,0,0,1-8.4,3.46,11,11,0,0,1-.06-22.08Z"></path>
            <path class="d1443386-a25c-4ced-843f-ee84e0b24e17" d="M874.49,204.46a10.79,10.79,0,0,1,11,10.89,11,11,0,1,1-22.08,0A10.79,10.79,0,0,1,874.49,204.46Zm0,18.53c3.91,0,7-3.25,7-7.64a7,7,0,1,0-14.08,0C867.45,219.74,870.58,223,874.49,223Z"></path>
            <path class="d1443386-a25c-4ced-843f-ee84e0b24e17" d="M890.56,204.82h4.15l4.18,10.56c.49,1.26,1.09,3.13,1.09,3.13H900s.57-1.87,1.05-3.13l4.18-10.56h4.15l1.72,21.36h-3.85l-.9-11.94c-.09-1.42,0-3.31,0-3.31h-.06s-.64,2.07-1.15,3.31l-3.46,8.27h-3.4l-3.43-8.27c-.51-1.24-1.17-3.34-1.17-3.34h-.06s.06,1.92,0,3.34l-.9,11.94h-3.89Z"></path>
            <path class="d1443386-a25c-4ced-843f-ee84e0b24e17" d="M915.9,204.82h8.24a6.55,6.55,0,0,1,6.8,7c0,4.15-2.8,7-6.8,7h-4.36v7.37H915.9Zm7.52,10.62a3.35,3.35,0,0,0,3.58-3.67,3.31,3.31,0,0,0-3.52-3.61h-3.7v7.28Z"></path>
            <path class="d1443386-a25c-4ced-843f-ee84e0b24e17" d="M944.36,220.71h-7.49l-1.8,5.47h-4l7.52-21.36h4.06l7.52,21.36h-4Zm-3.76-12.19s-.48,2.11-.9,3.31l-1.89,5.72h5.59l-1.89-5.72c-.39-1.2-.85-3.31-.85-3.31Z"></path>
            <path class="d1443386-a25c-4ced-843f-ee84e0b24e17" d="M952.91,204.82h6.89a10,10,0,0,1,4.31.6,6,6,0,0,1,3.49,5.84A6.17,6.17,0,0,1,964,217.1v.06a5.21,5.21,0,0,1,.72,1.05l4.39,8h-4.33l-4.24-8h-3.74v8h-3.88Zm7.37,10a3.1,3.1,0,0,0,3.37-3.37c0-2.05-.87-3.31-3.91-3.31h-3v6.68Z"></path>
            <path class="d1443386-a25c-4ced-843f-ee84e0b24e17" d="M983.34,220.71h-7.5l-1.8,5.47h-4l7.52-21.36h4.06l7.52,21.36h-4Zm-3.77-12.19s-.48,2.11-.9,3.31l-1.89,5.72h5.59l-1.89-5.72c-.39-1.2-.85-3.31-.85-3.31Z"></path>
            <path class="d1443386-a25c-4ced-843f-ee84e0b24e17" d="M995.07,208.16h-7v-3.34H1006v3.34h-7v18h-3.88Z"></path>
            <path class="d1443386-a25c-4ced-843f-ee84e0b24e17" d="M1008.8,204.82h3.88v21.36h-3.88Z"></path>
            <path class="d1443386-a25c-4ced-843f-ee84e0b24e17" d="M1015.36,204.82h4.18l4.69,13.93c.42,1.23.79,3.13.82,3.13h.06s.39-1.9.81-3.13l4.72-13.93h4.15L1027,226.18h-3.85Z"></path>
            <path class="d1443386-a25c-4ced-843f-ee84e0b24e17" d="M1037.48,204.82h12.78v3.34h-8.9v5.6h7.19v3.34h-7.19v5.74h9.38v3.34h-13.26Z"></path>
            <path class="d1443386-a25c-4ced-843f-ee84e0b24e17" d="M1062.09,204.82h8.25a6.55,6.55,0,0,1,6.8,7c0,4.15-2.8,7-6.8,7H1066v7.37h-3.88Zm7.52,10.62a3.35,3.35,0,0,0,3.58-3.67,3.31,3.31,0,0,0-3.52-3.61H1066v7.28Z"></path>
            <path class="d1443386-a25c-4ced-843f-ee84e0b24e17" d="M1090.14,204.46a10.79,10.79,0,0,1,11,10.89,11,11,0,1,1-22.09,0A10.79,10.79,0,0,1,1090.14,204.46Zm0,18.53c3.91,0,7-3.25,7-7.64a7,7,0,1,0-14.08,0C1083.1,219.74,1086.23,223,1090.14,223Z"></path>
            <path class="d1443386-a25c-4ced-843f-ee84e0b24e17" d="M1105.13,204.82H1109v18h9.23v3.34h-13.11Z"></path>
            <path class="d1443386-a25c-4ced-843f-ee84e0b24e17" d="M1121.35,204.82h3.88v21.36h-3.88Z"></path>
            <path class="d1443386-a25c-4ced-843f-ee84e0b24e17" d="M1135.07,208.16h-7v-3.34H1146v3.34h-7v18h-3.88Z"></path>
            <path class="d1443386-a25c-4ced-843f-ee84e0b24e17" d="M1148.79,204.82h3.88v21.36h-3.88Z"></path>
            <path class="d1443386-a25c-4ced-843f-ee84e0b24e17" d="M1167.6,204.46a11.05,11.05,0,0,1,7.88,2.92l-1.86,2.89a9.42,9.42,0,0,0-5.84-2.26c-4.51,0-7.16,3.37-7.16,7.34s2.73,7.64,7.19,7.64a9.22,9.22,0,0,0,6.2-2.7l2,2.79a11.5,11.5,0,0,1-8.39,3.46,11,11,0,0,1-.06-22.08Z"></path>
            <path class="d1443386-a25c-4ced-843f-ee84e0b24e17" d="M1180.12,220.71a8.54,8.54,0,0,0,5.32,2.25c1.63,0,3.1-.84,3.1-2.58,0-3.83-10.08-3.16-10.08-9.72,0-3.55,3.07-6.2,7.16-6.2a9.09,9.09,0,0,1,6.38,2.29l-1.68,3.15a7.83,7.83,0,0,0-4.73-1.86c-1.8,0-3.22,1.05-3.22,2.56,0,3.79,10.05,2.86,10.05,9.69,0,3.4-2.59,6.25-7,6.25a10.34,10.34,0,0,1-7.37-2.92Z"></path>
        </g>
    </g>
    <g>
        <path class="d1443386-a25c-4ced-843f-ee84e0b24e17" d="M1425.8,60.06c-1.65-.1-3.3-.16-4.93-.16-22.8,0-43.44,9.68-61.43,28.91-16.36,17.48-21.86,31.55-21.81,48.54,0,9.09,1.64,19,4,30.74,4.49,22,17.58,43.35,35.92,58.42,14,11.54,29.7,17.43,46.2,17.54a78.47,78.47,0,0,0,26.22-4.51c28.73-9.91,56.2-38.3,66.82-69a85.18,85.18,0,0,0,5-28.19c-.08-22-10.14-41.3-29.35-55.1C1469.13,70.49,1446.71,61.35,1425.8,60.06Z"></path>
        <g>
            <path class="4329dae1-a54f-4ae4-a1cc-cb2c2c0ddc0d" d="M1393,152.27h-6.32v.18c0,1.23-.78,12-10.39,12-8.59,0-13-7.7-13-22.88s4.37-22.89,13-22.89c9.78,0,10.37,11.48,10.39,12v.17H1393a2.15,2.15,0,0,0,1.55-.65,1.93,1.93,0,0,0,.56-1.46c-.13-3-1.66-17.84-18.92-17.84-14,0-21.33,10.6-21.33,30.66s7.38,30.73,21.33,30.73c16.62,0,18.68-13.57,18.92-17.74a2,2,0,0,0-.56-1.55A2.17,2.17,0,0,0,1393,152.27Z"></path>
            <path class="4329dae1-a54f-4ae4-a1cc-cb2c2c0ddc0d" d="M1491.15,137.88h0l-5.44-2.38c-5.23-2.29-7.09-4.53-7.09-8.54,0-5.24,3.83-8.75,9.53-8.75,3.37,0,6.13.69,9.5,4.12l.19.19,2.9-2.65c1.68-1.56,1.2-3,.49-3.87-2.83-3.34-7.37-5.18-12.8-5.18-10.47,0-18.07,6.83-18.07,16.24,0,9.25,5.83,13.12,12.13,15.92l5.55,2.48c5.58,2.5,8.23,4.64,8.23,10,0,7.32-6.61,9.27-10.52,9.27-3.36,0-7.1-.71-11.7-5.93l-.18-.2-3,2.66c-1.55,1.36-1.57,2.54,0,4.49,4.16,5.35,10.27,6.47,14.65,6.47,9.49,0,19.1-5.83,19.1-17C1504.54,145.62,1499.19,141.35,1491.15,137.88Z"></path>
            <path class="4329dae1-a54f-4ae4-a1cc-cb2c2c0ddc0d" d="M1437.51,128.4a17.46,17.46,0,0,0-17.16-17.51,17.08,17.08,0,0,0-11.57,4.49v-3.25h-5.71a2.19,2.19,0,0,0-2.38,2.41v55.31a2.19,2.19,0,0,0,2.35,2.39h5.71v-43.5a10.35,10.35,0,0,1,20.7,0v43.5h5.67a2.15,2.15,0,0,0,2.39-2.38Z"></path>
            <path class="4329dae1-a54f-4ae4-a1cc-cb2c2c0ddc0d" d="M1470.25,115a2.15,2.15,0,0,0-1-3.39,16.53,16.53,0,0,0-5.24-.85,17.08,17.08,0,0,0-11.57,4.49V112h-5.71a2.19,2.19,0,0,0-2.38,2.41v55.31a2.18,2.18,0,0,0,2.35,2.39h5.71v-43.5a10.33,10.33,0,0,1,14.55-9.45l3.3-4.14Z"></path>
        </g>
    </g>
</svg>