<svg xmlns="http://www.w3.org/2000/svg" id="addc05cc-b4a1-4c42-b36e-4a02f60b5897" data-name="Layer 1" viewBox="20.209999084472656 6.289999961853027 192.6199951171875 158.8000030517578" preserveAspectRatio="xMidYMid meet">
    <defs>
        <style>
            .\30 d38c2ff-2577-4ab2-af04-fa882d0cc352 {
            fill: #009f85;
            }

            .\30 d835150-2355-4914-a7b4-bc097a80adc0 {
            fill: #009ee2;
            }

            .\34 8bbf0fb-2994-49d5-ab39-ccf9928aec30 {
            fill: #f6e956;
            }
        </style>
    </defs>

    <circle class="0d38c2ff-2577-4ab2-af04-fa882d0cc352" cx="118.29" cy="99.46" r="3.37"></circle>
    <circle class="0d835150-2355-4914-a7b4-bc097a80adc0" cx="108" cy="53.33" r="3.37"></circle>
    <circle class="0d38c2ff-2577-4ab2-af04-fa882d0cc352" cx="131.5" cy="36.54" r="5.38"></circle>
    <circle class="0d38c2ff-2577-4ab2-af04-fa882d0cc352" cx="133.08" cy="87.29" r="2.75"></circle>
    <circle class="48bbf0fb-2994-49d5-ab39-ccf9928aec30" cx="139.83" cy="56.42" r="2.75"></circle>
    <circle class="0d835150-2355-4914-a7b4-bc097a80adc0" cx="65.96" cy="75.37" r="2.92"></circle>
    <circle class="0d835150-2355-4914-a7b4-bc097a80adc0" cx="106.79" cy="104.37" r="5.56"></circle>
    <circle class="48bbf0fb-2994-49d5-ab39-ccf9928aec30" cx="34.33" cy="41.67" r="2.92"></circle>
    <circle class="0d38c2ff-2577-4ab2-af04-fa882d0cc352" cx="93.33" cy="74.17" r="2.92"></circle>
    <circle class="0d835150-2355-4914-a7b4-bc097a80adc0" cx="140.13" cy="68.54" r="2.92"></circle>
    <circle class="0d38c2ff-2577-4ab2-af04-fa882d0cc352" cx="93.13" cy="104.04" r="3.34"></circle>
    <circle class="0d835150-2355-4914-a7b4-bc097a80adc0" cx="80.33" cy="49.67" r="3.5"></circle>
    <circle class="48bbf0fb-2994-49d5-ab39-ccf9928aec30" cx="79.67" cy="99" r="4.9"></circle>
    <circle class="0d835150-2355-4914-a7b4-bc097a80adc0" cx="137.58" cy="77.54" r="2.04"></circle>
    <circle class="0d835150-2355-4914-a7b4-bc097a80adc0" cx="102.42" cy="77.25" r="2.04"></circle>
    <circle class="0d835150-2355-4914-a7b4-bc097a80adc0" cx="64" cy="17.33" r="2.04"></circle>
    <circle class="0d835150-2355-4914-a7b4-bc097a80adc0" cx="137.71" cy="46.42" r="2.04"></circle>
    <circle class="0d38c2ff-2577-4ab2-af04-fa882d0cc352" cx="125.62" cy="95" r="2.04"></circle>
    <circle class="0d835150-2355-4914-a7b4-bc097a80adc0" cx="70.04" cy="88.88" r="4.67"></circle>
    <circle class="48bbf0fb-2994-49d5-ab39-ccf9928aec30" cx="112.21" cy="68.04" r="7"></circle>
    <circle class="48bbf0fb-2994-49d5-ab39-ccf9928aec30" cx="93.79" cy="46.87" r="6.04"></circle>
    <circle class="0d835150-2355-4914-a7b4-bc097a80adc0" cx="69.21" cy="61.44" r="5.73"></circle>
    <circle class="0d38c2ff-2577-4ab2-af04-fa882d0cc352" cx="35.58" cy="117.67" r="2.83"></circle>
    <circle class="48bbf0fb-2994-49d5-ab39-ccf9928aec30" cx="54.33" cy="139.67" r="2.33"></circle>
    <circle class="0d835150-2355-4914-a7b4-bc097a80adc0" cx="28" cy="101.79" r="6.92"></circle>
    <circle class="0d38c2ff-2577-4ab2-af04-fa882d0cc352" cx="25.46" cy="61" r="1.54"></circle>
    <circle class="0d38c2ff-2577-4ab2-af04-fa882d0cc352" cx="147" cy="148.33" r="1.54"></circle>
    <circle class="0d38c2ff-2577-4ab2-af04-fa882d0cc352" cx="30" cy="50.67" r="2.37"></circle>
    <circle class="0d38c2ff-2577-4ab2-af04-fa882d0cc352" cx="67" cy="147.33" r="6.83"></circle>
    <circle class="0d38c2ff-2577-4ab2-af04-fa882d0cc352" cx="94.46" cy="13.29" r="2.08"></circle>
    <circle class="0d835150-2355-4914-a7b4-bc097a80adc0" cx="76.63" cy="15.29" r="9"></circle>
    <circle class="0d38c2ff-2577-4ab2-af04-fa882d0cc352" cx="24.54" cy="70.12" r="2.92"></circle>
    <circle class="0d835150-2355-4914-a7b4-bc097a80adc0" cx="139" cy="151.67" r="2.92"></circle>
    <circle class="0d835150-2355-4914-a7b4-bc097a80adc0" cx="164.67" cy="138.67" r="2.92"></circle>
    <circle class="48bbf0fb-2994-49d5-ab39-ccf9928aec30" cx="192.09" cy="109.67" r="4.65"></circle>
    <circle class="0d835150-2355-4914-a7b4-bc097a80adc0" cx="89" cy="156" r="3.69"></circle>
    <circle class="0d38c2ff-2577-4ab2-af04-fa882d0cc352" cx="198.83" cy="96.42" r="2.92"></circle>
    <circle class="0d38c2ff-2577-4ab2-af04-fa882d0cc352" cx="24.46" cy="85.13" r="4.25"></circle>
    <circle class="48bbf0fb-2994-49d5-ab39-ccf9928aec30" cx="56.13" cy="21.71" r="3.5"></circle>
    <circle class="0d38c2ff-2577-4ab2-af04-fa882d0cc352" cx="120.13" cy="22.62" r="2.25"></circle>
    <circle class="0d38c2ff-2577-4ab2-af04-fa882d0cc352" cx="108.83" cy="17.29" r="5.12"></circle>
    <circle class="0d835150-2355-4914-a7b4-bc097a80adc0" cx="124.62" cy="27" r="1.38"></circle>
    <circle class="0d38c2ff-2577-4ab2-af04-fa882d0cc352" cx="99.33" cy="157.29" r="1.38"></circle>
    <circle class="0d835150-2355-4914-a7b4-bc097a80adc0" cx="183.29" cy="120.75" r="1.62"></circle>
    <circle class="0d38c2ff-2577-4ab2-af04-fa882d0cc352" cx="79" cy="154" r="2.38"></circle>
    <circle class="0d38c2ff-2577-4ab2-af04-fa882d0cc352" cx="175" cy="129.33" r="2.74"></circle>
    <circle class="0d38c2ff-2577-4ab2-af04-fa882d0cc352" cx="125.67" cy="156" r="4"></circle>
    <circle class="0d835150-2355-4914-a7b4-bc097a80adc0" cx="204.08" cy="82.42" r="5.25"></circle>
    <circle class="0d38c2ff-2577-4ab2-af04-fa882d0cc352" cx="111" cy="157.67" r="7.42"></circle>
    <circle class="48bbf0fb-2994-49d5-ab39-ccf9928aec30" cx="43.67" cy="129.67" r="5.25"></circle>
    <circle class="0d38c2ff-2577-4ab2-af04-fa882d0cc352" cx="43.25" cy="32.42" r="6.12"></circle>
    <circle class="0d38c2ff-2577-4ab2-af04-fa882d0cc352" cx="156" cy="143.67" r="3"></circle>
    <circle class="0d38c2ff-2577-4ab2-af04-fa882d0cc352" cx="205.83" cy="58.54" r="7"></circle>
</svg>