<svg xmlns="http://www.w3.org/2000/svg" id="1490b1bc-3281-43b2-8c4c-33a0dbf574f9" data-name="Layer 1" viewBox="44.80710220336914 26.965633392333984 329.90289306640625 323.8489074707031" preserveAspectRatio="xMidYMid meet">
    <defs>
        <style>
            .\38 0dc0350-9278-4ddb-aac6-26a892dc6fd3 {
            fill: #1d1d1b;
            }

            .\33 e31fb5f-ad4e-4373-b2d1-fe1a75a645b0 {
            fill: #009f85;
            }

            .a965cedb-396f-4fe8-95c8-bb5919410f39 {
            fill: #f6e956;
            }

            .\32 3c327fe-2765-48ae-a44d-6b70796543f4 {
            fill: #009ee2;
            }
        </style>
    </defs>

    <g>
        <g>
            <path class="80dc0350-9278-4ddb-aac6-26a892dc6fd3" d="M221.5,210.6a12.64,12.64,0,0,1,4.67.85,10.5,10.5,0,0,1,3.7,2.45,11,11,0,0,1,2.43,3.94,15.35,15.35,0,0,1,.88,5.35,3.33,3.33,0,0,1-.25,1.56,1.05,1.05,0,0,1-1,.39H213.25a15.8,15.8,0,0,0,.72,4.64,9.59,9.59,0,0,0,1.84,3.29,7.26,7.26,0,0,0,2.78,2,9.44,9.44,0,0,0,3.61.66,10.84,10.84,0,0,0,3.21-.43,16,16,0,0,0,2.32-.93c.65-.34,1.19-.65,1.63-.94a2.2,2.2,0,0,1,1.12-.43,1.1,1.1,0,0,1,1,.48l1.39,1.8a9.51,9.51,0,0,1-2.2,1.93,13.17,13.17,0,0,1-2.74,1.35,17.08,17.08,0,0,1-3,.79,18.09,18.09,0,0,1-3.09.27,14.22,14.22,0,0,1-5.37-1,11.89,11.89,0,0,1-4.26-2.89,13.39,13.39,0,0,1-2.79-4.71,19.08,19.08,0,0,1-1-6.45,16.48,16.48,0,0,1,.9-5.5,13.13,13.13,0,0,1,2.6-4.43,12.07,12.07,0,0,1,4.14-3A13.66,13.66,0,0,1,221.5,210.6Zm.12,3.64a7.59,7.59,0,0,0-5.64,2.07,9.69,9.69,0,0,0-2.56,5.74h15.31a10.11,10.11,0,0,0-.47-3.15,7,7,0,0,0-1.39-2.47,6.18,6.18,0,0,0-2.24-1.62A7.52,7.52,0,0,0,221.62,214.24Z"></path>
            <path class="80dc0350-9278-4ddb-aac6-26a892dc6fd3" d="M248.07,239.64a6.81,6.81,0,0,1-5.13-1.86,7.45,7.45,0,0,1-1.79-5.36V215.19h-3.39a1.08,1.08,0,0,1-.75-.27,1,1,0,0,1-.31-.82v-2l4.62-.58,1.14-8.7a1,1,0,0,1,.36-.68,1.12,1.12,0,0,1,.78-.27h2.5v9.7h8.06v3.59H246.1v16.89a3.6,3.6,0,0,0,.86,2.64,3,3,0,0,0,2.22.87,3.91,3.91,0,0,0,1.35-.21,5.73,5.73,0,0,0,1-.46c.28-.17.51-.32.71-.46a.9.9,0,0,1,.51-.21.85.85,0,0,1,.69.47l1.45,2.37A9.25,9.25,0,0,1,251.8,239,10.39,10.39,0,0,1,248.07,239.64Z"></path>
            <path class="80dc0350-9278-4ddb-aac6-26a892dc6fd3" d="M260.33,239.2V198.26h4.94v16.57a15.32,15.32,0,0,1,4-3.07,10.73,10.73,0,0,1,5.06-1.16,10.12,10.12,0,0,1,4.07.77,7.93,7.93,0,0,1,3,2.16,9.83,9.83,0,0,1,1.79,3.38,14.63,14.63,0,0,1,.61,4.36V239.2H278.8V221.27a7.6,7.6,0,0,0-1.45-5,5.48,5.48,0,0,0-4.46-1.76,8.24,8.24,0,0,0-4.1,1.06,13.38,13.38,0,0,0-3.52,2.86V239.2Z"></path>
            <path class="80dc0350-9278-4ddb-aac6-26a892dc6fd3" d="M291.28,239.2V211.05h3a1.25,1.25,0,0,1,1.33,1l.36,2.89a14.31,14.31,0,0,1,3.49-3.14,8.17,8.17,0,0,1,4.49-1.23,6.66,6.66,0,0,1,4.63,1.59,8.93,8.93,0,0,1,2.54,4.28,8.78,8.78,0,0,1,1.54-2.64,8.84,8.84,0,0,1,4.7-2.89,11,11,0,0,1,2.73-.34,10.4,10.4,0,0,1,4,.71,7.82,7.82,0,0,1,2.95,2.07,9.28,9.28,0,0,1,1.85,3.35,15,15,0,0,1,.64,4.54V239.2h-4.95V221.27a7.6,7.6,0,0,0-1.44-5,5.21,5.21,0,0,0-4.2-1.71,6.21,6.21,0,0,0-2.32.43,5.66,5.66,0,0,0-1.93,1.26,5.88,5.88,0,0,0-1.32,2.1,8,8,0,0,0-.49,2.93V239.2h-5V221.27a7.85,7.85,0,0,0-1.36-5.05,4.82,4.82,0,0,0-4-1.67,6.3,6.3,0,0,0-3.41,1,11.08,11.08,0,0,0-2.87,2.68v21Z"></path>
            <path class="80dc0350-9278-4ddb-aac6-26a892dc6fd3" d="M343.58,202.21a3.24,3.24,0,0,1-.29,1.35,3.77,3.77,0,0,1-.78,1.11,3.58,3.58,0,0,1-1.12.76,3.33,3.33,0,0,1-1.37.28,3.16,3.16,0,0,1-1.34-.28,3.63,3.63,0,0,1-1.88-1.87,3.4,3.4,0,0,1-.28-1.35,3.62,3.62,0,0,1,.28-1.38,3.68,3.68,0,0,1,.76-1.13,3.73,3.73,0,0,1,1.12-.77,3.31,3.31,0,0,1,1.34-.28,3.49,3.49,0,0,1,1.37.28,3.61,3.61,0,0,1,1.12.77,3.74,3.74,0,0,1,.78,1.13A3.45,3.45,0,0,1,343.58,202.21Zm-1.11,8.84V239.2h-5V211.05Z"></path>
            <path class="80dc0350-9278-4ddb-aac6-26a892dc6fd3" d="M360.73,210.58a14,14,0,0,1,3.43.4,10.83,10.83,0,0,1,2.9,1.18h7.65V214q0,.91-1.17,1.17l-3.2.45a8.52,8.52,0,0,1,1,4,8.76,8.76,0,0,1-.79,3.74,8.52,8.52,0,0,1-2.2,2.88,9.78,9.78,0,0,1-3.33,1.83,13.37,13.37,0,0,1-4.24.64,14.49,14.49,0,0,1-3.73-.47,4.61,4.61,0,0,0-1.34,1.23,2.26,2.26,0,0,0-.46,1.3,1.75,1.75,0,0,0,.8,1.56,5.48,5.48,0,0,0,2.14.76,17.3,17.3,0,0,0,3,.23h3.46a19.79,19.79,0,0,1,3.46.31,10.6,10.6,0,0,1,3,1,5.64,5.64,0,0,1,2.14,1.94,5.74,5.74,0,0,1,.81,3.21,7.55,7.55,0,0,1-.91,3.54,9.57,9.57,0,0,1-2.6,3.05,13.47,13.47,0,0,1-4.14,2.14,17.83,17.83,0,0,1-5.53.8,21.24,21.24,0,0,1-5.4-.61,12.82,12.82,0,0,1-3.85-1.64,7.17,7.17,0,0,1-2.29-2.38,5.65,5.65,0,0,1-.77-2.82,5.1,5.1,0,0,1,1.32-3.55,9,9,0,0,1,3.63-2.32,4.92,4.92,0,0,1-1.9-1.49,4,4,0,0,1-.71-2.48,3.8,3.8,0,0,1,.22-1.26,5,5,0,0,1,.68-1.29,6.76,6.76,0,0,1,1.13-1.22,7.33,7.33,0,0,1,1.55-1,8.69,8.69,0,0,1-3.26-3.1,8.46,8.46,0,0,1-1.18-4.52,8.6,8.6,0,0,1,.79-3.73,8.29,8.29,0,0,1,2.21-2.87,10.29,10.29,0,0,1,3.37-1.82A14,14,0,0,1,360.73,210.58Zm8.78,30a2.53,2.53,0,0,0-.58-1.73,3.76,3.76,0,0,0-1.59-1,11.45,11.45,0,0,0-2.31-.52,20.1,20.1,0,0,0-2.75-.17h-2.94a10.68,10.68,0,0,1-2.86-.38,8,8,0,0,0-2.57,1.84,3.71,3.71,0,0,0-1,2.59,3.32,3.32,0,0,0,.49,1.76,4,4,0,0,0,1.48,1.42,8.67,8.67,0,0,0,2.52.95,16.21,16.21,0,0,0,3.57.35,15.57,15.57,0,0,0,3.58-.37,9,9,0,0,0,2.68-1.05,5,5,0,0,0,1.69-1.61A3.94,3.94,0,0,0,369.51,240.63Zm-8.78-15.19a8,8,0,0,0,2.65-.41,5.4,5.4,0,0,0,1.93-1.17,4.8,4.8,0,0,0,1.17-1.79,6.53,6.53,0,0,0,.39-2.3,5.46,5.46,0,0,0-1.57-4.11,7.56,7.56,0,0,0-9.12,0,5.5,5.5,0,0,0-1.57,4.11,6.31,6.31,0,0,0,.41,2.3,4.82,4.82,0,0,0,1.18,1.79,5.49,5.49,0,0,0,1.91,1.17A7.83,7.83,0,0,0,360.73,225.44Z"></path>
            <path class="80dc0350-9278-4ddb-aac6-26a892dc6fd3" d="M230,271.27a1.09,1.09,0,0,1-1,.61,1.86,1.86,0,0,1-.94-.31c-.36-.2-.79-.43-1.3-.68a11.63,11.63,0,0,0-1.82-.69,8.39,8.39,0,0,0-2.5-.32,7.2,7.2,0,0,0-2.25.32,5.4,5.4,0,0,0-1.71.87,3.88,3.88,0,0,0-1.08,1.29A3.52,3.52,0,0,0,217,274a2.66,2.66,0,0,0,.63,1.81,5.52,5.52,0,0,0,1.65,1.25,15,15,0,0,0,2.34.93l2.68.86c.92.31,1.81.65,2.68,1a9.46,9.46,0,0,1,2.33,1.39,6,6,0,0,1,2.28,4.94,9.24,9.24,0,0,1-.69,3.6,7.76,7.76,0,0,1-2.06,2.86,10,10,0,0,1-3.33,1.91,13.83,13.83,0,0,1-4.56.69,14.26,14.26,0,0,1-5.34-1,13.53,13.53,0,0,1-4.05-2.46l1.16-1.89a1.75,1.75,0,0,1,.53-.55,1.49,1.49,0,0,1,.81-.2,1.85,1.85,0,0,1,1.05.39c.37.26.82.55,1.35.86a9.58,9.58,0,0,0,1.92.86,8.71,8.71,0,0,0,2.82.39,7.75,7.75,0,0,0,2.53-.37,5.38,5.38,0,0,0,1.8-1,3.93,3.93,0,0,0,1.07-1.48,4.42,4.42,0,0,0,.35-1.78,3,3,0,0,0-.62-1.93,5.25,5.25,0,0,0-1.66-1.3,12.5,12.5,0,0,0-2.35-1L219.6,282a28.19,28.19,0,0,1-2.7-1,9.46,9.46,0,0,1-2.34-1.43,6.48,6.48,0,0,1-1.66-2.13,6.94,6.94,0,0,1-.62-3.07,7.57,7.57,0,0,1,.66-3.1,7.71,7.71,0,0,1,1.95-2.61,9.49,9.49,0,0,1,3.14-1.79,12.43,12.43,0,0,1,4.25-.67,13.33,13.33,0,0,1,5,.88,11.7,11.7,0,0,1,3.82,2.4Z"></path>
            <path class="80dc0350-9278-4ddb-aac6-26a892dc6fd3" d="M242.32,266.63v17.95a7.45,7.45,0,0,0,1.47,4.94,5.47,5.47,0,0,0,4.45,1.75,8.57,8.57,0,0,0,4.08-1,12.6,12.6,0,0,0,3.53-2.87V266.63h5v28.15h-2.95a1.26,1.26,0,0,1-1.33-1l-.39-3A15.76,15.76,0,0,1,252,294a10.83,10.83,0,0,1-5.23,1.23,10.15,10.15,0,0,1-4.07-.76,8.05,8.05,0,0,1-3-2.16,9,9,0,0,1-1.79-3.36,14.92,14.92,0,0,1-.6-4.36V266.63Z"></path>
            <path class="80dc0350-9278-4ddb-aac6-26a892dc6fd3" d="M269,294.78V266.63h2.84a1.57,1.57,0,0,1,1.11.3,2,2,0,0,1,.42,1.06l.33,4.39a12.82,12.82,0,0,1,3.57-4.6,7.91,7.91,0,0,1,5-1.65,7.67,7.67,0,0,1,2.11.26,7.37,7.37,0,0,1,1.75.74l-.64,3.69a.83.83,0,0,1-.86.7,4.16,4.16,0,0,1-1.19-.27,7.78,7.78,0,0,0-2.25-.26,6.39,6.39,0,0,0-4.33,1.5,11.42,11.42,0,0,0-2.9,4.36v17.93Z"></path>
            <path class="80dc0350-9278-4ddb-aac6-26a892dc6fd3" d="M287.89,266.63H292a1.54,1.54,0,0,1,1,.3,1.81,1.81,0,0,1,.56.72l7.14,18.12a14.26,14.26,0,0,1,.61,2q.22,1,.42,2c.14-.65.3-1.31.47-2a17.79,17.79,0,0,1,.64-2L310,267.65a1.65,1.65,0,0,1,.55-.73,1.44,1.44,0,0,1,.93-.29h3.86l-11.48,28.15h-4.47Z"></path>
            <path class="80dc0350-9278-4ddb-aac6-26a892dc6fd3" d="M330.38,266.18a12.47,12.47,0,0,1,4.67.85,10.48,10.48,0,0,1,3.7,2.44,11.37,11.37,0,0,1,2.43,3.95,15.35,15.35,0,0,1,.87,5.35,3.2,3.2,0,0,1-.25,1.56,1,1,0,0,1-.94.39H322.13a15.86,15.86,0,0,0,.72,4.64,9.74,9.74,0,0,0,1.83,3.29,7.34,7.34,0,0,0,2.78,2,9.49,9.49,0,0,0,3.62.65,10.53,10.53,0,0,0,3.21-.43,14.34,14.34,0,0,0,2.32-.93,15.44,15.44,0,0,0,1.62-.93,2.23,2.23,0,0,1,1.13-.43,1.1,1.1,0,0,1,.94.47l1.39,1.81a9.26,9.26,0,0,1-2.19,1.93,13.68,13.68,0,0,1-2.74,1.35,17,17,0,0,1-3,.79,17.89,17.89,0,0,1-3.08.27,14.27,14.27,0,0,1-5.38-1,11.85,11.85,0,0,1-4.25-2.89,13.39,13.39,0,0,1-2.79-4.71,19.08,19.08,0,0,1-1-6.45,16.44,16.44,0,0,1,.9-5.5,12.87,12.87,0,0,1,2.6-4.43,12.07,12.07,0,0,1,4.14-2.95A13.63,13.63,0,0,1,330.38,266.18Zm.11,3.64a7.59,7.59,0,0,0-5.64,2.07,9.81,9.81,0,0,0-2.56,5.74h15.32a9.82,9.82,0,0,0-.48-3.15,7,7,0,0,0-1.38-2.48,6.36,6.36,0,0,0-2.24-1.61A7.57,7.57,0,0,0,330.49,269.82Z"></path>
            <path class="80dc0350-9278-4ddb-aac6-26a892dc6fd3" d="M356,303.09a2.58,2.58,0,0,1-.63.88,1.65,1.65,0,0,1-1.15.34H350.5l5.14-11.17L344,266.63h4.28a1.43,1.43,0,0,1,1,.32,2,2,0,0,1,.52.7l7.54,17.73c.16.41.31.82.43,1.23s.22.82.32,1.25l.38-1.25c.13-.41.28-.83.45-1.25l7.31-17.71a1.56,1.56,0,0,1,.57-.73,1.42,1.42,0,0,1,.87-.29h3.95Z"></path>
            <path class="80dc0350-9278-4ddb-aac6-26a892dc6fd3" d="M260.66,350.36a1.26,1.26,0,0,1-1.33-1l-.45-3.42a14.77,14.77,0,0,1-4.13,3.51,10.45,10.45,0,0,1-5.32,1.33,10.19,10.19,0,0,1-4.39-.94,9.19,9.19,0,0,1-3.36-2.73,13,13,0,0,1-2.14-4.51,23.12,23.12,0,0,1-.75-6.19,19.64,19.64,0,0,1,.83-5.8,14.15,14.15,0,0,1,2.41-4.65,11,11,0,0,1,8.93-4.22,10.25,10.25,0,0,1,4.42.87,10.48,10.48,0,0,1,3.28,2.46V309.42h4.95v40.94Zm-9.59-3.62a8,8,0,0,0,4.24-1.11,12.3,12.3,0,0,0,3.35-3.14V328.87a7.91,7.91,0,0,0-3-2.57,8.61,8.61,0,0,0-3.6-.73,7.13,7.13,0,0,0-6.06,2.8c-1.4,1.88-2.11,4.54-2.11,8a20.09,20.09,0,0,0,.48,4.71,8.83,8.83,0,0,0,1.39,3.22,5.48,5.48,0,0,0,2.25,1.85A7.48,7.48,0,0,0,251.07,346.74Z"></path>
            <path class="80dc0350-9278-4ddb-aac6-26a892dc6fd3" d="M292.65,350.36h-2.2a2.62,2.62,0,0,1-1.17-.23,1.22,1.22,0,0,1-.58-.94l-.56-2.61c-.74.66-1.46,1.26-2.16,1.79a12.39,12.39,0,0,1-2.23,1.33,11.46,11.46,0,0,1-2.48.82,14,14,0,0,1-2.94.28,9.92,9.92,0,0,1-3.07-.46,7.07,7.07,0,0,1-2.48-1.38,6.52,6.52,0,0,1-1.69-2.33,8.28,8.28,0,0,1-.62-3.33,6.14,6.14,0,0,1,.92-3.22,8,8,0,0,1,3-2.75,19.11,19.11,0,0,1,5.35-2,35.82,35.82,0,0,1,8.08-.77v-2.21a7.69,7.69,0,0,0-1.4-5,5.09,5.09,0,0,0-4.16-1.69,9,9,0,0,0-3,.45,11.86,11.86,0,0,0-2.14,1c-.6.38-1.12.73-1.55,1a2.24,2.24,0,0,1-1.3.46,1.51,1.51,0,0,1-.87-.26,2.1,2.1,0,0,1-.6-.66l-.89-1.58a16.07,16.07,0,0,1,5-3.36,15.57,15.57,0,0,1,6-1.11,10.61,10.61,0,0,1,4.19.77,8.68,8.68,0,0,1,3.09,2.17A9.35,9.35,0,0,1,292,328a14.22,14.22,0,0,1,.64,4.34Zm-12.84-3a9.93,9.93,0,0,0,2.39-.27,8.89,8.89,0,0,0,2-.75,10.55,10.55,0,0,0,1.83-1.18,14.75,14.75,0,0,0,1.71-1.58v-5.81a33.16,33.16,0,0,0-5.81.43,16.59,16.59,0,0,0-3.89,1.13A5.53,5.53,0,0,0,275.9,341a3.62,3.62,0,0,0-.68,2.13,4.75,4.75,0,0,0,.36,1.93,3.57,3.57,0,0,0,1,1.32,3.68,3.68,0,0,0,1.44.76A6.55,6.55,0,0,0,279.81,347.33Z"></path>
            <path class="80dc0350-9278-4ddb-aac6-26a892dc6fd3" d="M308.73,350.8a6.77,6.77,0,0,1-5.12-1.86,7.4,7.4,0,0,1-1.79-5.36V326.35h-3.4a1.11,1.11,0,0,1-.75-.27,1,1,0,0,1-.3-.82v-2l4.61-.59,1.14-8.69a1.06,1.06,0,0,1,.36-.68,1.14,1.14,0,0,1,.78-.27h2.5v9.7h8.06v3.59h-8.06v16.89a3.6,3.6,0,0,0,.86,2.64,3,3,0,0,0,2.23.86,3.89,3.89,0,0,0,1.34-.21,5.73,5.73,0,0,0,1-.45c.28-.17.51-.32.71-.46a.9.9,0,0,1,.51-.21.87.87,0,0,1,.7.47l1.44,2.36a9.11,9.11,0,0,1-3.08,1.88A10.61,10.61,0,0,1,308.73,350.8Z"></path>
            <path class="80dc0350-9278-4ddb-aac6-26a892dc6fd3" d="M341.66,350.36h-2.19a2.62,2.62,0,0,1-1.17-.23,1.19,1.19,0,0,1-.58-.94l-.56-2.61c-.74.66-1.46,1.26-2.17,1.79a12,12,0,0,1-2.22,1.33,11.36,11.36,0,0,1-2.49.82,13.88,13.88,0,0,1-2.93.28,9.92,9.92,0,0,1-3.07-.46,7.2,7.2,0,0,1-2.49-1.38,6.62,6.62,0,0,1-1.68-2.33,8.28,8.28,0,0,1-.62-3.33,6.14,6.14,0,0,1,.92-3.22,8.06,8.06,0,0,1,2.95-2.75,19.35,19.35,0,0,1,5.35-2,35.91,35.91,0,0,1,8.09-.77v-2.21a7.69,7.69,0,0,0-1.4-5,5.09,5.09,0,0,0-4.16-1.69,8.94,8.94,0,0,0-3,.45,11.86,11.86,0,0,0-2.14,1c-.6.38-1.12.73-1.56,1a2.19,2.19,0,0,1-1.29.46,1.51,1.51,0,0,1-.87-.26,2.1,2.1,0,0,1-.6-.66l-.89-1.58a16.07,16.07,0,0,1,5-3.36,15.56,15.56,0,0,1,6-1.11,10.63,10.63,0,0,1,4.2.77,8.56,8.56,0,0,1,3.08,2.17A9.07,9.07,0,0,1,341,328a13.92,13.92,0,0,1,.64,4.34Zm-12.83-3a9.93,9.93,0,0,0,2.39-.27,8.89,8.89,0,0,0,2-.75,10.55,10.55,0,0,0,1.83-1.18,14.75,14.75,0,0,0,1.71-1.58v-5.81a33.16,33.16,0,0,0-5.81.43,16.59,16.59,0,0,0-3.89,1.13,5.46,5.46,0,0,0-2.18,1.65,3.62,3.62,0,0,0-.68,2.13,4.75,4.75,0,0,0,.36,1.93,3.66,3.66,0,0,0,1,1.32,3.8,3.8,0,0,0,1.45.76A6.5,6.5,0,0,0,328.83,347.33Z"></path>
        </g>
        <g>
            <path class="3e31fb5f-ad4e-4373-b2d1-fe1a75a645b0" d="M199.8,68.74a24.3,24.3,0,1,1,8.9,33.2A24.31,24.31,0,0,1,199.8,68.74Z"></path>
            <path class="a965cedb-396f-4fe8-95c8-bb5919410f39" d="M46.83,73.05a15.1,15.1,0,1,1,5.53,20.62A15.09,15.09,0,0,1,46.83,73.05Z"></path>
            <path class="3e31fb5f-ad4e-4373-b2d1-fe1a75a645b0" d="M120.11,88.6a12,12,0,1,1,2.28,16.77A12,12,0,0,1,120.11,88.6Z"></path>
            <path class="a965cedb-396f-4fe8-95c8-bb5919410f39" d="M214.21,120.46a12,12,0,1,1-11.89-12A12,12,0,0,1,214.21,120.46Z"></path>
            <path class="23c327fe-2765-48ae-a44d-6b70796543f4" d="M185.46,185.2a15.09,15.09,0,1,1-15-15.2A15.1,15.1,0,0,1,185.46,185.2Z"></path>
            <path class="3e31fb5f-ad4e-4373-b2d1-fe1a75a645b0" d="M130.43,210.16a12,12,0,1,1-.27,16.91A12,12,0,0,1,130.43,210.16Z"></path>
            <path class="3e31fb5f-ad4e-4373-b2d1-fe1a75a645b0" d="M118.94,62.74a3.72,3.72,0,1,1,2.89-4.39A3.71,3.71,0,0,1,118.94,62.74Z"></path>
            <path class="3e31fb5f-ad4e-4373-b2d1-fe1a75a645b0" d="M144.67,137.1a8.15,8.15,0,1,1,3.45-11A8.16,8.16,0,0,1,144.67,137.1Z"></path>
            <path class="3e31fb5f-ad4e-4373-b2d1-fe1a75a645b0" d="M145.36,42.35a8.16,8.16,0,1,1,3.44-11A8.16,8.16,0,0,1,145.36,42.35Z"></path>
            <path class="23c327fe-2765-48ae-a44d-6b70796543f4" d="M118.07,174.91A8.15,8.15,0,1,1,109,182,8.15,8.15,0,0,1,118.07,174.91Z"></path>
            <path class="3e31fb5f-ad4e-4373-b2d1-fe1a75a645b0" d="M94.52,108.88a12,12,0,1,1,3,16.66A12,12,0,0,1,94.52,108.88Z"></path>
            <path class="3e31fb5f-ad4e-4373-b2d1-fe1a75a645b0" d="M60.3,120.6a3.72,3.72,0,1,1,.91,5.17A3.73,3.73,0,0,1,60.3,120.6Z"></path>
            <path class="3e31fb5f-ad4e-4373-b2d1-fe1a75a645b0" d="M60.41,178.8A5.93,5.93,0,1,1,65.28,172,5.93,5.93,0,0,1,60.41,178.8Z"></path>
            <path class="3e31fb5f-ad4e-4373-b2d1-fe1a75a645b0" d="M174.65,149.16a3.71,3.71,0,1,1,1.11,5.14A3.71,3.71,0,0,1,174.65,149.16Z"></path>
            <path class="23c327fe-2765-48ae-a44d-6b70796543f4" d="M143.48,69.33a8.16,8.16,0,1,1,3.45-11A8.15,8.15,0,0,1,143.48,69.33Z"></path>
            <path class="a965cedb-396f-4fe8-95c8-bb5919410f39" d="M73.51,160.42a12,12,0,1,1,4.38,16.34A12,12,0,0,1,73.51,160.42Z"></path>
            <path class="3e31fb5f-ad4e-4373-b2d1-fe1a75a645b0" d="M164.23,93.93a3.72,3.72,0,1,1,1.11,5.14A3.71,3.71,0,0,1,164.23,93.93Z"></path>
        </g>
    </g>
</svg>